<svg version="1.1" xmlns="http://www.w3.org/2000/svg" xmlns:xlink="http://www.w3.org/1999/xlink" width="306.28592" height="500.11948" viewBox="0,0,306.28592,500.11948"><g transform="translate(-27.42111,-142.6096)"><g stroke-miterlimit="10"><path d="M84.05493,146.60961c60.5709,0.00281 154.85005,0.00717 189.22086,0.00876c24.88613,0.00116 55.22456,41.45611 55.3359,77.54293c0.18887,61.2147 0.78902,255.73454 1.09536,355.02265c0.11123,36.05156 -28.61317,59.54624 -52.68681,59.54513c-33.00738,-0.00153 -123.39685,-0.00571 -184.76861,-0.00855c-35.0682,-0.00162 -60.7475,-27.72026 -60.83052,-54.62928c-0.16859,-54.64152 -0.79019,-256.11216 -1.12789,-365.56789c-0.13294,-43.08755 22.19124,-71.91522 53.76171,-71.91375z" fill="#d1af8a" stroke="#a87744" stroke-width="8" stroke-linecap="butt"/><text transform="translate(65.78375,624.32689) scale(0.42804,0.42804)" font-size="40" xml:space="preserve" fill="#313131" stroke="none" stroke-width="1" stroke-linecap="butt" font-family="&quot;Comic Sans MS&quot;, Sans Serif" font-weight="normal" text-anchor="start"><tspan x="0" dy="0">нажми чтобы приготовить</tspan></text><path d="M294.79474,614.73077c0,0 5.70435,3.12368 5.32075,4.62967c-0.20443,0.80256 -1.54817,4.18892 -3.57439,5.10814c-1.59677,0.7244 -0.68564,0.73833 0.20487,-0.2511c0.10343,-0.11492 2.71552,-3.21047 2.39718,-4.29011c-0.3263,-1.10666 -3.58794,-0.1966 -3.87314,-0.1966c-2.5328,0 -9.97526,0 -9.97526,0" fill="none" stroke="#313131" stroke-width="4.5" stroke-linecap="round"/><path d="M325.77591,413.08477h-291.37522" fill="none" stroke="#a87744" stroke-width="8" stroke-linecap="round"/><path d="M235.71448,415.73363v191.60128" fill="none" stroke="#a87744" stroke-width="8" stroke-linecap="round"/></g></g></svg>