<svg version="1.1" xmlns="http://www.w3.org/2000/svg" xmlns:xlink="http://www.w3.org/1999/xlink" width="368.43905" height="276" viewBox="0,0,368.43905,276"><g transform="translate(-135.78048,-42)"><g stroke-miterlimit="10"><path d="M139.78048,265.5c0,-54.41817 0,-139.12054 0,-170c0,-22.35822 30.36204,-49.5 56.79329,-49.5c44.83579,0 187.30894,0 260.03103,0c26.40542,0 43.61473,25.87173 43.61473,47.5c0,29.65452 0,110.86232 0,166c0,31.50601 -20.30123,54.5 -40.01034,54.5c-40.02136,0 -187.58551,0 -267.75472,0c-31.55883,0 -52.67398,-20.13642 -52.67398,-48.5z" fill="#d1af8a" stroke="#a87744" stroke-width="8"/><path d="M479.847,69.93375c0,7.5663 -6.40233,13.7 -14.3,13.7c-7.89767,0 -14.3,-6.1337 -14.3,-13.7c0,-7.5663 6.40233,-13.7 14.3,-13.7c7.89767,0 14.3,6.1337 14.3,13.7z" fill="#a68b6d" stroke="#7d5932" stroke-width="5.5"/><text transform="translate(156.60001,91.9) scale(0.5,0.5)" font-size="40" xml:space="preserve" fill="#000000" stroke="none" stroke-width="1" font-family="&quot;Comic Sans MS&quot;, Sans Serif" font-weight="normal" text-anchor="start"><tspan x="0" dy="0">громкость</tspan><tspan x="0" dy="48px">  музыки</tspan></text><text transform="translate(459.61479,74.71509) rotate(-0.14666) scale(0.5,0.5)" font-size="40" xml:space="preserve" fill="#000000" stroke="none" stroke-width="1" font-family="&quot;Comic Sans MS&quot;, Sans Serif" font-weight="normal" text-anchor="start"><tspan x="0" dy="0">х</tspan></text><text transform="translate(177.8,301.45) scale(0.5,0.5)" font-size="40" xml:space="preserve" fill="#000000" stroke="none" stroke-width="1" font-family="&quot;Comic Sans MS&quot;, Sans Serif" font-weight="normal" text-anchor="start"><tspan x="0" dy="0">Автор:</tspan></text><text transform="translate(243.8,300.45) scale(0.5,0.5)" font-size="40" xml:space="preserve" fill="#000000" stroke="none" stroke-width="1" font-family="&quot;Comic Sans MS&quot;, Sans Serif" font-weight="normal" text-anchor="start"><tspan x="0" dy="0">Савицкий Даниил</tspan></text><text transform="translate(352.8,90.2) scale(0.5,0.5)" font-size="40" xml:space="preserve" fill="#000000" stroke="none" stroke-width="1" font-family="&quot;Comic Sans MS&quot;, Sans Serif" font-weight="normal" text-anchor="start"><tspan x="0" dy="0">музыка</tspan></text><text transform="translate(161.6,181.51831) scale(0.5,0.5)" font-size="40" xml:space="preserve" fill="#000000" stroke="none" stroke-width="1" font-family="&quot;Comic Sans MS&quot;, Sans Serif" font-weight="normal" text-anchor="start"><tspan x="0" dy="0">громкость</tspan><tspan x="0" dy="48px">  звуков</tspan></text></g></g></svg>