<svg version="1.1" xmlns="http://www.w3.org/2000/svg" xmlns:xlink="http://www.w3.org/1999/xlink" width="181.10748" height="174" viewBox="0,0,181.10748,174"><g transform="translate(-149.44626,-93)"><g data-paper-data="{&quot;isPaintingLayer&quot;:true}" fill-rule="nonzero" stroke-linejoin="miter" stroke-miterlimit="10" stroke-dasharray="" stroke-dashoffset="0" style="mix-blend-mode: normal"><path d="M149.44626,239.5139c0,-33.27087 0,-87.45787 0,-108.52882c0,-8.04747 4.1849,-21.95768 12.82131,-29.28326c9.14396,-7.75611 22.76842,-8.70182 22.76842,-8.70182c0,0 84.44297,0 117.40397,0c16.58377,0 28.11378,23.38064 28.11378,40.93423c0,20.46564 0,70.10539 0,102.63051c0,17.77273 -13.06962,30.43526 -24.95492,30.43526c-19.88618,0 -83.03127,0 -122.66873,0c-19.62245,0 -33.48383,-11.25368 -33.48383,-27.4861z" fill="#000000" stroke="none" stroke-width="none" stroke-linecap="butt"/><g stroke="#ffffff"><path d="M246.63188,137.92681v94.02466c0,0 -4.99066,6.91016 -6.75339,9.35084c-1.13421,1.57044 -4.82243,3.87137 -8.05962,3.87137c-1.33355,0 -2.18389,0.71168 -3.8339,0.78659c-7.22675,0.32805 -17.68952,0.54479 -25.98442,0.54479c-5.87876,0 -11.44708,-1.33137 -13.66808,-1.33137c-2.46846,0 -5.88819,-1.52218 -6.69075,-2.72602c-1.57482,-2.36222 -6.99747,-10.49619 -6.99747,-10.49619l-0.73456,-94.02466z" fill="none" stroke-width="2.5" stroke-linecap="round"/><path d="M196.85346,197.24315c0,-6.3575 0,-16.08677 0,-19.83333c0,-2.92444 2.59784,-6.61111 5.14198,-6.61111c7.32328,0 42.60492,0 42.60492,0v32.32097c0,0 -34.26297,0 -41.87035,0c-2.84999,0 -5.87654,-2.44793 -5.87654,-5.87654z" fill="none" stroke-width="2.5" stroke-linecap="butt"/><text transform="translate(201.26086,187.4188) scale(0.38057,0.38057)" font-size="40" xml:space="preserve" fill="#ffffff" fill-rule="nonzero" stroke="#ffffff" stroke-width="5" stroke-linecap="butt" stroke-linejoin="miter" stroke-miterlimit="10" stroke-dasharray="" stroke-dashoffset="0" font-family="Handwriting" font-weight="normal" text-anchor="start" style="mix-blend-mode: normal"><tspan x="0" dy="0">Coffee</tspan></text></g><g stroke="#ffffff" stroke-width="3"><path d="M171.2905,135.89927c-2.54608,0 -3.98729,-2.02789 -3.96682,-3.56266c0.0374,-2.80304 0.15855,-11.88367 0.15855,-11.88367l4.69652,-6.22342c0,0 25.26832,-0.73457 37.89693,-0.73457c12.62122,0 37.85255,0.73457 37.85255,0.73457l4.58021,6.26015c0,0 0,9.04976 0,11.84695c0,1.53392 -1.34995,3.56265 -3.05993,3.56265c-4.20677,0 -22.93887,1.33137 -41.45679,1.33137c-14.96861,0 -29.79729,-1.33137 -36.7012,-1.33137z" fill="none" stroke-linecap="round"/><path d="M229.909,119.40823c0,-1.20737 0,-4.99506 0,-4.99506h6.61111c0,0 0,3.48121 0,4.70124c0,0.77762 -0.78974,1.90987 -1.76296,1.90987c-1.15812,0 -2.57604,0 -3.2321,0c-0.68675,0 -1.61605,-0.9293 -1.61605,-1.61604z" fill="#ffffff" stroke-linecap="butt"/></g><text transform="translate(254.5488,201.62493) scale(0.52538,0.52538)" font-size="40" xml:space="preserve" fill="#ffffff" fill-rule="nonzero" stroke="#ffffff" stroke-width="2" stroke-linecap="butt" stroke-linejoin="miter" stroke-miterlimit="10" stroke-dasharray="" stroke-dashoffset="0" font-family="Handwriting" font-weight="normal" text-anchor="start" style="mix-blend-mode: normal"><tspan x="0" dy="0">Coffee</tspan></text><text transform="translate(258.31989,217.58916) scale(0.33284,0.33284)" font-size="40" xml:space="preserve" fill="#ffffff" fill-rule="nonzero" stroke="#ffffff" stroke-width="2" stroke-linecap="butt" stroke-linejoin="miter" stroke-miterlimit="10" stroke-dasharray="" stroke-dashoffset="0" font-family="Handwriting" font-weight="normal" text-anchor="start" style="mix-blend-mode: normal"><tspan x="0" dy="0">Maker</tspan></text></g></g></svg>