<svg version="1.1" xmlns="http://www.w3.org/2000/svg" xmlns:xlink="http://www.w3.org/1999/xlink" width="642" height="724" viewBox="0,0,642,724"><defs><linearGradient x1="180" y1="-0.89999" x2="180" y2="723.10001" gradientUnits="userSpaceOnUse" id="color-1"><stop offset="0" stop-color="#000000"/><stop offset="1" stop-color="#151515"/></linearGradient></defs><g transform="translate(141,0.89999)"><g stroke-miterlimit="10"><path d="M-141,723.10001v-724h642v724z" fill="url(#color-1)" stroke="none" stroke-width="0" stroke-linecap="butt"/><g stroke="#ffffff"><path d="M188.96251,293.96368v141.24525c0,0 -7.49705,10.38054 -10.14504,14.04698c-1.70382,2.35913 -7.24433,5.81563 -12.10729,5.81563c-2.00328,0 -3.28067,1.0691 -5.75934,1.18162c-10.85613,0.4928 -26.57347,0.81838 -39.03419,0.81838c-8.83117,0 -17.19597,-2 -20.5324,-2c-3.70816,0 -8.84532,-2.28664 -10.05094,-4.09507c-2.36571,-3.54857 -10.51169,-15.76754 -10.51169,-15.76754l-1.10348,-141.24525z" fill="none" stroke-width="5" stroke-linecap="round"/><path d="M114.18461,383.06958c0,-9.55033 0,-24.16578 0,-29.79392c0,-4.39314 3.90251,-9.93131 7.72435,-9.93131c11.00114,0 64.00175,0 64.00175,0v48.55305c0,0 -51.47034,0 -62.89827,0c-4.2813,0 -8.82783,-3.67733 -8.82783,-8.82783z" fill="none" stroke-width="5" stroke-linecap="butt"/><text transform="translate(120.80548,368.31129) scale(0.57169,0.57169)" font-size="40" xml:space="preserve" fill="#ffffff" stroke-width="3" stroke-linecap="butt" font-family="Handwriting" font-weight="normal" text-anchor="start"><tspan x="0" dy="0">Coffee</tspan></text></g><g stroke="#ffffff" stroke-width="5"><path d="M77.78355,296.58454c-3.82476,0 -5.98978,-3.04632 -5.95902,-5.35187c0.05618,-4.21078 0.23818,-17.85183 0.23818,-17.85183l7.05518,-9.34891c0,0 37.95844,-1.10348 56.92933,-1.10348c18.95978,0 56.86268,1.10348 56.86268,1.10348l6.88045,9.40409c0,0 0,13.59469 0,17.79666c0,2.30428 -2.02792,5.35187 -4.59668,5.35187c-6.31948,0 -34.45911,2 -62.27701,2c-22.48608,0 -44.76194,-2 -55.1331,-2z" fill="#000000" stroke-linecap="round"/><path d="M165.84114,271.81147c0,-1.81373 0,-7.50365 0,-7.50365h9.93131c0,0 0,5.22952 0,7.06226c0,1.16815 -1.18637,2.86904 -2.64835,2.86904c-1.73974,0 -3.86977,0 -4.85531,0c-1.03164,0 -2.42765,-1.39601 -2.42765,-2.42765z" fill="#ffffff" stroke-linecap="butt"/></g><text transform="translate(200.85542,389.65195) scale(0.78923,0.78923)" font-size="40" xml:space="preserve" fill="#ffffff" stroke="#ffffff" stroke-width="2" stroke-linecap="butt" font-family="Handwriting" font-weight="normal" text-anchor="start"><tspan x="0" dy="0">Coffee</tspan></text><text transform="translate(206.52041,413.63366) scale(0.5,0.5)" font-size="40" xml:space="preserve" fill="#ffffff" stroke="#ffffff" stroke-width="2" stroke-linecap="butt" font-family="Handwriting" font-weight="normal" text-anchor="start"><tspan x="0" dy="0">Maker</tspan></text></g></g></svg>