<svg version="1.1" xmlns="http://www.w3.org/2000/svg" xmlns:xlink="http://www.w3.org/1999/xlink" width="62.90957" height="65.70319" viewBox="0,0,62.90957,65.70319"><g transform="translate(-288.54543,-145.87605)"><g stroke-miterlimit="10"><path d="M291.22844,207.20988l4.11022,-56.20988h53.4329l-4.11022,58z" fill="#b29576" stroke="#815c34" stroke-width="5"/><path d="M330.28268,154.93855c0,3.62437 -3.24594,6.5625 -7.25,6.5625c-4.00406,0 -7.25,-2.93813 -7.25,-6.5625c0,-3.62437 3.24594,-6.5625 7.25,-6.5625c4.00406,0 7.25,2.93813 7.25,6.5625z" fill="#b37676" stroke="#823434" stroke-width="5"/><path d="M342.0951,180.82028c0,1.81543 1.11314,3.68044 -0.13753,5.31781c-3.54032,4.63497 -13.3056,8.05144 -22.27711,8.05144c-9.36986,0 -18.57937,-3.35793 -21.74337,-8.08754c-0.93569,-1.3987 -0.23955,-2.91736 -0.23955,-4.50461c0,-6.95446 9.84209,-12.59215 21.98291,-12.59215c12.14083,0 22.41464,4.8606 22.41464,11.81505z" fill="#af865b" stroke="#8d6c49" stroke-width="2.5"/><path d="M341.49068,178.40262c0,6.95446 -9.84209,12.59215 -21.98291,12.59215c-12.14083,0 -21.98291,-5.6377 -21.98291,-12.59215c0,-6.95446 9.84209,-12.59215 21.98291,-12.59215c12.14083,0 21.98291,5.6377 21.98291,12.59215z" fill="#af865b" stroke="#8d6c49" stroke-width="2.5"/><path d="M335.66237,178.31627c0,5.09698 -7.21334,9.22888 -16.11144,9.22888c-8.8981,0 -16.11144,-4.13191 -16.11144,-9.22888c0,-5.09698 7.21334,-9.22888 16.11144,-9.22888c8.8981,0 16.11144,4.13191 16.11144,9.22888z" fill="#ffe1c1" stroke="#e8cdb1" stroke-width="2.5"/></g></g></svg>