<svg version="1.1" xmlns="http://www.w3.org/2000/svg" xmlns:xlink="http://www.w3.org/1999/xlink" width="134.30953" height="231.7735" viewBox="0,0,134.30953,231.7735"><g transform="translate(-174.8748,-38.33388)"><g stroke-miterlimit="10"><path d="M297.81702,104.49952v141.24525c0,0 -7.49705,10.38054 -10.14504,14.04698c-1.70382,2.35913 -7.24433,5.81563 -12.10729,5.81563c-2.00328,0 -3.28067,1.0691 -5.75934,1.18162c-10.85613,0.4928 -26.57347,0.81838 -39.03419,0.81838c-8.83117,0 -17.19597,-2 -20.5324,-2c-3.70816,0 -8.84532,-2.28664 -10.05094,-4.09507c-2.36571,-3.54857 -10.51169,-15.76754 -10.51169,-15.76754l-1.10348,-141.24525z" fill="#87563d" stroke="#5c311b" stroke-width="5" stroke-linecap="round"/><path d="M223.03912,193.60541c0,-9.55033 0,-24.16578 0,-29.79392c0,-4.39314 3.90251,-9.93131 7.72435,-9.93131c11.00114,0 64.00175,0 64.00175,0v48.55305c0,0 -51.47034,0 -62.89827,0c-4.2813,0 -8.82783,-3.67733 -8.82783,-8.82783z" fill="#5c311b" stroke="#5c311b" stroke-width="5" stroke-linecap="butt"/><text transform="translate(229.65999,178.84713) scale(0.57169,0.57169)" font-size="40" xml:space="preserve" fill="#87563d" stroke="#87563d" stroke-width="3" stroke-linecap="butt" font-family="Handwriting" font-weight="normal" text-anchor="start"><tspan x="0" dy="0">Coffee</tspan></text><g stroke="#c1b2a7" stroke-width="5"><path d="M182.64671,73.06176c-3.79407,-0.48355 -5.55658,-3.77914 -5.23459,-6.0623c0.58808,-4.16989 2.49321,-17.67847 2.49321,-17.67847l8.18052,-8.38193c0,0 37.79337,3.70432 56.61204,6.10274c18.80765,2.39701 56.26691,8.28356 56.26691,8.28356l5.63632,10.1985c0,0 -1.71873,13.48561 -2.24997,17.65386c-0.29132,2.28579 -2.68826,5.05254 -5.23641,4.72779c-6.26877,-0.79895 -34.43546,-2.37258 -62.03015,-5.8895c-22.30565,-2.84283 -44.14992,-7.64304 -54.43786,-8.95422z" fill="#e8e5e3" stroke-linecap="round"/><path d="M273.1297,59.62025c0.2293,-1.79918 0.94866,-7.44344 0.94866,-7.44344l9.85162,1.25558c0,0 -0.66115,5.18756 -0.89286,7.00559c-0.14768,1.15878 -1.53957,2.69603 -2.98982,2.5112c-1.72578,-0.21995 -3.83872,-0.48924 -4.81635,-0.61384c-1.02336,-0.13043 -2.23168,-1.69173 -2.10125,-2.71509z" fill="#c1b2a7" stroke-linecap="butt"/></g></g></g></svg>