<svg version="1.1" xmlns="http://www.w3.org/2000/svg" xmlns:xlink="http://www.w3.org/1999/xlink" width="280.82661" height="102.84559" viewBox="0,0,280.82661,102.84559"><g transform="translate(-186.82089,-71.89933)"><g stroke="none" stroke-miterlimit="10"><path d="M296.16668,158.4116c0,0 -2.19626,16.33333 -11.24032,16.33333c-11.56631,0 -61.65856,-2.42096 -86.00351,-7.1632c-15.53204,-3.02555 -10.74783,-9.17013 -10.74783,-9.17013l-1.35413,-43.33334c0,0 10.75912,-4.86867 19.29719,-3.39112c5.51008,0.95354 18.15119,-0.38896 29.46491,-1.26927c11.93843,-0.92892 24.25731,2.43187 34.46331,2.18113c14.24319,-0.34993 26.12037,2.14593 26.12037,2.14593z" fill="#751a34" stroke-width="1.5" stroke-linecap="round"/><text transform="translate(294.6973,150.78849) scale(1.77279,1.77279)" font-size="40" xml:space="preserve" fill="#313131" stroke-width="1" stroke-linecap="butt" font-family="&quot;Comic Sans MS&quot;, Sans Serif" font-weight="normal" text-anchor="start"><tspan x="0" dy="0"> - </tspan></text><text transform="translate(348.67875,134.81536) scale(0.5,0.5)" font-size="40" xml:space="preserve" fill="#313131" stroke-width="1" stroke-linecap="butt" font-family="&quot;Comic Sans MS&quot;, Sans Serif" font-weight="normal" text-anchor="start"><tspan x="0" dy="0">малиновый </tspan><tspan x="0" dy="48px">сироп</tspan></text></g></g></svg>