<svg version="1.1" xmlns="http://www.w3.org/2000/svg" xmlns:xlink="http://www.w3.org/1999/xlink" width="128.9689" height="235.98718" viewBox="0,0,128.9689,235.98718"><g transform="translate(-203.76869,-75.05051)"><g fill="#ffffff" stroke="none" stroke-miterlimit="10"><path d="M332.5124,158.41849c2.26275,18.72652 -12.95264,69.58119 -26.50638,76.98278c-1.27873,0.69831 -17.44076,8.92308 -20.40304,20.42946c-4.88778,18.98558 2.90697,44.3216 1.24944,40.46286c-3.78658,-8.81515 -22.2243,6.65562 -22.82336,-1.37606c-2.41653,-32.39882 27.44992,-85.70121 35.11016,-88.01427c15.97589,-4.82403 27.61153,-33.24101 26.9659,-38.58426c-5.66904,-46.91692 -151.77026,-58.11093 -116.99106,-62.31335c34.7792,-4.20242 117.72931,5.49591 123.39835,52.41283z" stroke-width="0"/><path d="M259.29374,283.83177c3.40501,-5.28271 6.23308,9.66006 12.42643,11.65418c1.67443,0.53913 9.66122,-5.3123 11.88552,-3.87862c10.45147,6.73656 20.86497,-12.68595 16.53939,-5.97501c-4.32558,6.71094 -13.62838,30.97197 -24.07985,24.23541c-10.45147,-6.73656 -21.09707,-19.32502 -16.77149,-26.03596z" stroke-width="0"/><text transform="translate(219.00126,97.98235) rotate(-0.35005) scale(0.5,0.5)" font-size="40" xml:space="preserve" fill="#ffffff" stroke-width="1" font-family="&quot;Comic Sans MS&quot;, Sans Serif" font-weight="normal" text-anchor="start"><tspan x="0" dy="0">отдай кофе</tspan></text></g></g></svg>