<svg version="1.1" xmlns="http://www.w3.org/2000/svg" xmlns:xlink="http://www.w3.org/1999/xlink" width="174.85828" height="197.89068" viewBox="0,0,174.85828,197.89068"><g transform="translate(-190.96608,-72.375)"><g fill="#ffffff" stroke="none" stroke-miterlimit="10"><path d="M332.0124,158.91848c2.26275,18.72652 -12.95264,69.58118 -26.50638,76.98278c-3.38865,1.85052 -7.99151,9.58967 -10.6536,3.39233c-19.06118,-44.37439 -19.96099,21.73663 -32.37296,25.89827c-7.37351,2.47228 -17.95023,-19.41164 -32.97901,-17.59178c-19.25616,2.33176 -41.69092,27.0822 -29.97964,15.78575c4.26077,-4.10984 19.9328,-45.17269 28.11837,-35.06475c10.55884,13.03859 26.77118,26.31383 35.48379,25.25694c12.00228,-1.45594 -7.94798,-40.21625 4.08701,-57.0321c5.70999,-7.97825 20.73983,14.08509 31.42925,10.85734c15.97589,-4.82403 27.61153,-33.24101 26.9659,-38.58426c-5.66904,-46.91692 -151.77027,-58.11094 -116.99106,-62.31336c34.77921,-4.20242 117.72931,5.49592 123.39835,52.41284z" stroke-width="0"/><path d="M197.10828,234.56374c5.98299,-1.92481 -1.3075,11.42185 2.21617,16.89156c0.95266,1.47879 10.83876,2.02014 11.64921,4.5393c3.80809,11.83693 24.17748,3.42486 16.57693,5.87005c-7.60055,2.44519 -30.1799,15.30259 -33.98799,3.46566c-3.80809,-11.83693 -4.05487,-28.32138 3.54568,-30.76657z" stroke-width="0"/><text transform="translate(206.24233,94.625) scale(0.5,0.5)" font-size="40" xml:space="preserve" fill="#ffffff" stroke-width="1" font-family="&quot;Comic Sans MS&quot;, Sans Serif" font-weight="normal" text-anchor="start"><tspan x="0" dy="0">Приготовь кофе</tspan></text></g></g></svg>