<svg version="1.1" xmlns="http://www.w3.org/2000/svg" xmlns:xlink="http://www.w3.org/1999/xlink" width="222.86183" height="101.04903" viewBox="0,0,222.86183,101.04903"><g transform="translate(-184.72199,-82.39934)"><g stroke="none" stroke-miterlimit="10"><path d="M296.16668,158.41161c0,0 -2.23842,16.33333 -11.45608,16.33333c-11.78832,0 -62.8421,-2.42096 -87.65435,-7.1632c-15.83018,-3.02555 -10.95413,-9.17013 -10.95413,-9.17013l-1.38013,-43.33334c0,0 10.96564,-4.86867 19.6676,-3.39112c5.61585,0.95354 18.4996,-0.38896 30.03049,-1.26927c12.16759,-0.92892 24.72292,2.43187 35.12483,2.18113c14.51658,-0.34993 26.62176,2.14593 26.62176,2.14593z" fill="#87563d" stroke-width="0" stroke-linecap="round"/><text transform="translate(296.1973,161.2885) scale(1.77279,1.77279)" font-size="40" xml:space="preserve" fill="#313131" stroke-width="1" stroke-linecap="butt" font-family="&quot;Comic Sans MS&quot;, Sans Serif" font-weight="normal" text-anchor="start"><tspan x="0" dy="0"> - </tspan></text><text transform="translate(353.85257,146.9316) scale(0.5,0.5)" font-size="40" xml:space="preserve" fill="#313131" stroke-width="1" stroke-linecap="butt" font-family="&quot;Comic Sans MS&quot;, Sans Serif" font-weight="normal" text-anchor="start"><tspan x="0" dy="0">латте</tspan></text></g></g></svg>