<svg version="1.1" xmlns="http://www.w3.org/2000/svg" xmlns:xlink="http://www.w3.org/1999/xlink" width="82.19296" height="81.75374" viewBox="0,0,82.19296,81.75374"><g transform="translate(-278.90352,-138.21272)"><g stroke-width="4.5" stroke-miterlimit="10"><path d="M303.13298,161.45869c17.09337,-15.68754 35.61288,-26.61161 47.31628,-13.85942c11.7034,12.7522 12.15886,44.35165 -4.93451,60.0392c-17.09337,15.68755 -46.28561,11.36649 -57.98901,-1.3857c-11.7034,-12.75219 -1.48613,-29.10654 15.60724,-44.79409z" fill="#997650" stroke="#7a5d3f" stroke-linecap="butt"/><path d="M344.95556,203.04612c-12.56908,15.48987 -31.37437,21.05548 -42.00281,12.43115c-10.62842,-8.62433 -9.05521,-28.17273 3.51387,-43.6626c12.56908,-15.48987 31.37437,-21.05548 42.00281,-12.43115c10.62842,8.62433 9.05521,28.17273 -3.51387,43.6626z" fill="#ff9bb8" stroke="none" stroke-linecap="butt"/><path d="M351.17377,176.95624c2.25077,1.43113 0.81966,3.68191 0.81966,3.68191l-1.64988,2.54819c-0.97161,3.31098 -0.87951,6.19935 -0.41276,9.20896l0.28712,0.75121c0.37901,0.67102 -1.05185,2.34322 -1.35147,3.11813c-0.53126,1.37394 0.61933,3.09914 -0.75462,2.5679c-0.04579,-0.01771 -0.09081,-0.03653 -0.13504,-0.05643l-4.14208,-1.83259c-2.53912,-0.77425 1.65254,3.46171 -0.86928,4.6652c-0.40098,0.19135 -9.00796,-6.36271 -8.99632,-5.91858c0.03839,1.46424 8.17539,5.86173 7.93972,7.30739c-1.35615,8.31921 -11.77529,8.5455 -20.12034,8.79539c0,0 -2.66662,0.05774 -2.72435,-2.60888c-0.05773,-2.66662 2.60888,-2.72435 2.60888,-2.72435c1.61494,-0.01829 3.81598,0.93986 4.83499,-0.31312c2.2926,-2.819 1.62161,-7.68889 2.15102,-10.96584c0.25252,-1.56296 -0.0635,-3.65723 1.21446,-4.59181c4.17552,-3.05357 9.57232,-0.8153 13.99415,0.74501c-0.66407,-3.15499 0.84179,-7.80405 1.62547,-10.36781l1.99879,-3.19019c0,0 1.43113,-2.25078 3.6819,-0.81966z" fill="#ff0000" stroke="none" stroke-linecap="butt"/><path d="M354.82593,183.31731c-1.30271,3.59193 -1.90926,8.72397 -4.78042,11.42834c-0.42741,0.40258 -1.1596,0.77452 -2.01835,1.12422c-2.36933,0.9649 -5.70199,1.76071 -6.25441,2.56483c-1.736,2.52697 -2.31305,5.42642 -4.24628,7.74357c-1.07112,1.28385 -4.27019,2.25777 -5.255,3.8066c-1.18421,1.86246 -0.37985,3.58513 -2.78735,5.35506c-3.47091,2.55169 -8.0838,1.08443 -12.00124,0.9914c-2.66759,-0.06336 -8.35715,3.23557 -10.86552,0.47845c-6.05338,-6.65371 5.49262,-9.44988 10.6904,-9.38743c1.83598,0.02206 5.00532,2.08539 5.49924,0.31694c1.16244,-4.16205 5.9615,-4.66414 8.21774,-7.85789c1.89973,-2.68909 2.06775,-5.56647 4.74002,-8.03688c2.30602,-2.13183 4.64138,-2.01584 7.39384,-2.933c2.23586,-0.74501 4.57123,-17.10915 4.45794,-17.85777c-0.94319,-1.19377 -1.24862,-2.84105 -0.66021,-4.36281c0.77652,-2.00825 2.85186,-3.13097 4.89526,-2.77951c7.19925,-1.63841 4.80061,14.37029 2.97431,19.40589z" fill="#7eff66" stroke="none" stroke-linecap="butt"/><path d="M297.47585,153.97968c17.09337,-15.68754 40.43777,-18.0671 52.14117,-5.31491c11.7034,12.7522 7.33397,35.80715 -9.7594,51.4947c-17.09337,15.68755 -40.43777,18.06711 -52.14117,5.31492c-11.7034,-12.75219 -7.33397,-35.80716 9.7594,-51.49471z" fill="#af865b" stroke="#8d6c49" stroke-linecap="butt"/><path d="M293.49115,180.86662c0,0 7.92838,4.69419 10.83222,7.85825c2.80367,3.05491 6.30085,10.81018 6.30085,10.81018" fill="none" stroke="#8d6c49" stroke-linecap="round"/><path d="M305.9637,168.81647c0,0 8.74558,5.6963 11.94845,9.2414c3.15416,3.4912 7.12491,11.86993 7.12491,11.86993" fill="none" stroke="#8d6c49" stroke-linecap="round"/><path d="M318.65389,155.35986c0,0 10.30492,4.59502 13.34907,8.65283c2.78596,3.71366 7.54124,14.10953 7.54124,14.10953" fill="none" stroke="#8d6c49" stroke-linecap="round"/></g></g></svg>