<svg version="1.1" xmlns="http://www.w3.org/2000/svg" xmlns:xlink="http://www.w3.org/1999/xlink" width="152.41845" height="305.0223" viewBox="0,0,152.41845,305.0223"><defs><radialGradient cx="184.3153" cy="433.11271" r="77.5" gradientUnits="userSpaceOnUse" id="color-1"><stop offset="0" stop-color="#202020"/><stop offset="1" stop-color="#202020" stop-opacity="0"/></radialGradient></defs><g transform="translate(-95.89685,-160.01348)"><g stroke-miterlimit="10"><path d="M182.8153,432.03578c42.80207,0 65.5,6.26802 65.5,14c0,7.73198 -52.69793,19 -95.5,19c-42.80207,0 -41.5,-10.26802 -41.5,-18c0,-7.73198 28.69793,-15 71.5,-15z" fill="url(#color-1)" stroke="none" stroke-width="0" stroke-linecap="butt"/><path d="M237.36116,284.49947v141.24525c0,0 -7.49705,10.38054 -10.14504,14.04698c-1.70382,2.35913 -7.24433,5.81563 -12.10729,5.81563c-2.00328,0 -3.28067,1.0691 -5.75934,1.18162c-10.85613,0.4928 -26.57347,0.81838 -39.03419,0.81838c-8.83117,0 -17.19597,-2 -20.5324,-2c-3.70816,0 -8.84532,-2.28664 -10.05094,-4.09507c-2.36571,-3.54857 -10.51169,-15.76754 -10.51169,-15.76754l-1.10348,-141.24525z" fill="#87563d" stroke="#5c311b" stroke-width="5" stroke-linecap="round"/><path d="M162.58326,373.60535c0,-9.55033 0,-24.16578 0,-29.79392c0,-4.39314 3.90251,-9.93131 7.72435,-9.93131c11.00114,0 64.00175,0 64.00175,0v48.55305c0,0 -51.47034,0 -62.89827,0c-4.2813,0 -8.82783,-3.67733 -8.82783,-8.82783z" fill="#5c311b" stroke="#5c311b" stroke-width="5" stroke-linecap="butt"/><text transform="translate(169.20413,358.84708) scale(0.57169,0.57169)" font-size="40" xml:space="preserve" fill="#87563d" stroke="#87563d" stroke-width="3" stroke-linecap="butt" font-family="Handwriting" font-weight="normal" text-anchor="start"><tspan x="0" dy="0">Coffee</tspan></text><g stroke="#c1b2a7" stroke-width="5"><path d="M135.76953,283.43869c0.16057,3.82139 -2.79217,6.11239 -5.09698,6.17845c-4.20943,0.12065 -17.84609,0.51148 -17.84609,0.51148l-9.63686,-6.65648c0,0 -2.69607,-37.87865 -3.4925,-56.83281c-0.79597,-18.94306 -1.28469,-56.85887 -1.28469,-56.85887l9.10695,-7.26918c0,0 13.5827,-0.57073 17.78097,-0.74714c2.30225,-0.09674 5.43229,1.80145 5.54013,4.36795c0.2653,6.31391 3.44489,34.34477 4.61274,62.13814c0.94401,22.46626 -0.11905,44.80644 0.31635,55.16846z" fill="#e8e5e3" stroke-linecap="round"/><path d="M107.32147,196.49875c-1.81213,0.07614 -7.49703,0.31502 -7.49703,0.31502l-0.41693,-9.92255c0,0 5.22491,-0.21954 7.05603,-0.29649c1.16712,-0.04904 2.91632,1.06488 2.97769,2.52557c0.07304,1.73821 0.16246,3.86636 0.20383,4.85103c0.04331,1.03073 -1.29286,2.48412 -2.32359,2.52743z" fill="#c1b2a7" stroke-linecap="butt"/></g></g></g></svg>