<svg version="1.1" xmlns="http://www.w3.org/2000/svg" xmlns:xlink="http://www.w3.org/1999/xlink" width="132.96614" height="113.88737" viewBox="0,0,132.96614,113.88737"><g transform="translate(-115.72285,-269.9643)"><g stroke-miterlimit="10"><path d="M124.1822,306.12039c-3.82476,0 -5.98978,-3.04632 -5.95902,-5.35187c0.05618,-4.21078 0.23818,-17.85183 0.23818,-17.85183l7.05518,-9.34891c0,0 37.95844,-1.10348 56.92933,-1.10348c18.95978,0 56.86268,1.10348 56.86268,1.10348l6.88045,9.40409c0,0 0,13.59469 0,17.79666c0,2.30428 -2.02792,5.35187 -4.59668,5.35187c-6.31948,0 -34.45911,2 -62.27701,2c-22.48608,0 -44.76194,-2 -55.1331,-2z" fill="#e8e5e3" stroke="#c1b2a7" stroke-width="5" stroke-linecap="round"/><path d="M212.23979,281.34731c0,-1.81373 0,-7.50365 0,-7.50365h9.93131c0,0 0,5.22952 0,7.06226c0,1.16815 -1.18637,2.86904 -2.64835,2.86904c-1.73974,0 -3.86977,0 -4.85531,0c-1.03164,0 -2.42765,-1.39601 -2.42765,-2.42765z" fill="#c1b2a7" stroke="#c1b2a7" stroke-width="5" stroke-linecap="butt"/><text transform="translate(169.20413,373.8471) scale(0.57169,0.57169)" font-size="40" xml:space="preserve" fill="#87563d" stroke="#87563d" stroke-width="3" stroke-linecap="butt" font-family="Handwriting" font-weight="normal" text-anchor="start"><tspan x="0" dy="0">Coffee</tspan></text></g></g></svg>