<svg version="1.1" xmlns="http://www.w3.org/2000/svg" xmlns:xlink="http://www.w3.org/1999/xlink" width="68.57623" height="122.85773" viewBox="0,0,68.57623,122.85773"><g transform="translate(-38.70575,-343.78232)"><g stroke-miterlimit="10"><path d="M50.93799,400.953c0,0 14.34548,0.16615 21.12934,-1.86463c6.70143,-2.00609 22.08991,-4.16222 22.08991,-4.16222l11.56705,34.58582c0,0 -14.91229,6.05664 -21.98044,8.21302c-6.30466,1.92344 -18.97375,1.94804 -18.97375,1.94804z" fill="#ffec73" stroke="#baaf63" stroke-width="2.5" stroke-linecap="butt"/><g fill="#ffec73" stroke="#baaf63" stroke-width="2.5" stroke-linecap="butt"><path d="M55.52699,390.3381v-45.11111h46.77777v45.11111z"/><path d="M40.52699,383.22699l-0.55556,-33.44444l14.88889,-4.33334l-0.11111,44.55556z"/></g><g stroke-width="1.5"><path d="M79.78352,391.9085l2.96108,-10.19246l2.41977,0.36383l1.27295,10.29846z" fill="#959595" stroke="#656565" stroke-linecap="round"/><path d="M75.76181,465.89006c-1.89207,-0.19713 -3.21969,-2.33609 -2.96532,-4.77746c0.25437,-2.44138 1.9944,-4.2607 3.88648,-4.06357c1.89207,0.19713 3.21969,2.33609 2.96532,4.77746c-0.25437,2.44138 -1.9944,4.2607 -3.88648,4.06357z" fill="#eefaaf" stroke="#9c936d" stroke-linecap="butt"/><path d="M80.50881,389.23593c1.40358,0.14624 3.42686,0.35705 4.42051,0.46057c1.10837,0.11548 2.64049,1.89074 2.43165,3.89519c-0.76018,7.29603 -5.35418,51.38807 -6.66686,63.98695c-0.22191,2.12977 -0.96248,3.29578 -1.8309,3.2053c-1.66407,-0.17339 -4.26814,-0.4447 -5.30462,-0.5527c-0.84453,-0.088 -1.81693,-1.43204 -1.595,-3.56225c1.33125,-12.77693 6.03905,-57.96134 6.73595,-64.65003c0.16905,-1.62245 0.93852,-2.87378 1.80925,-2.78305z" fill="#b0f0fb" stroke="#6d949b" stroke-linecap="butt"/><path d="M83.7783,383.05258c-0.885,-0.0922 -1.53543,-0.81018 -1.45275,-1.60362c0.08267,-0.79344 0.86712,-1.36191 1.75212,-1.2697c0.885,0.0922 1.53543,0.81018 1.45275,1.60362c-0.08267,0.79344 -0.86713,1.36192 -1.75212,1.26971z" fill="#6d6d6d" stroke="#515151" stroke-linecap="butt"/></g><text transform="translate(89.88113,424.19407) rotate(34.57877) scale(0.22263,0.22263)" font-size="40" xml:space="preserve" fill="#000000" stroke="none" stroke-width="1" stroke-linecap="butt" font-family="&quot;Comic Sans MS&quot;, Sans Serif" font-weight="normal" text-anchor="start"><tspan x="0" dy="0">V1</tspan></text></g></g></svg>