<svg version="1.1" xmlns="http://www.w3.org/2000/svg" xmlns:xlink="http://www.w3.org/1999/xlink" width="49.10336" height="149.19827" viewBox="0,0,49.10336,149.19827"><g transform="translate(-296.39953,-105.46129)"><g stroke-miterlimit="10"><path d="M298.14953,251.35588c2.1991,-1.16036 6.13403,-3.39296 6.14475,-4.94448c0.13098,-18.95621 0.77086,-111.56037 0.87243,-126.25949c0.01984,-2.87144 -5.54645,-8.40359 -8.34616,-11.00345c-0.9401,-0.87299 -0.70513,-1.2326 0.564,-1.02196c1.71678,0.28493 4.17649,0.62089 6.24761,0.62452c0.87863,0.00154 2.0353,-1.50778 3.38233,-1.52574c0.95127,-0.01268 2.24392,1.23266 3.37168,1.23167c0.87348,-0.00077 2.80109,-1.37272 3.75309,-1.37929c1.37041,-0.00946 3.41249,1.62146 4.86927,1.63185c1.19942,0.00856 3.42209,-1.48696 4.63219,-1.4983c1.05752,-0.00991 3.84211,1.62519 4.86818,1.62971c1.08854,0.0048 2.76549,-1.37617 3.7578,-1.39814c0.977,-0.02163 3.00831,1.6015 3.8653,1.60117c0.94266,-0.00037 3.16619,-1.39946 3.91017,-1.45535c3.7648,-0.28282 3.71068,0.22962 3.71068,0.22962c0,0 -9.30596,8.06648 -9.3282,11.28581c-0.0949,13.73412 -0.75429,109.16247 -0.88279,127.75945c-0.00885,1.28084 4.04936,4.12642 5.29251,5.1131c0.72084,0.57213 -0.43316,0.19089 -1.69402,0.19632c-1.87856,0.00808 -1.7777,-1.54491 -2.99774,-1.36786c-0.44123,0.06403 -1.50257,2.19835 -2.2621,2.11497c-0.69932,-0.07678 -2.62461,-2.00527 -3.60316,-2.00009c-0.62546,0.00331 -3.0527,1.73789 -3.76404,1.72632c-0.44724,-0.00728 -2.51937,-1.52158 -2.98768,-1.51991c-0.65581,0.00235 -2.46024,1.74158 -3.13872,1.73237c-0.53903,-0.00732 -2.07113,-1.39432 -2.61454,-1.39689c-0.5027,-0.00238 -2.26216,1.35916 -2.75833,1.35169c-0.54956,-0.00827 -1.70763,-1.39404 -2.24144,-1.39848c-1.04212,-0.00867 -2.42707,0.85194 -3.37825,0.83653c-0.79654,-0.01291 -2.29654,-0.77467 -3.00112,-0.77379c-2.1994,0.00275 -5.31328,0.51003 -6.0064,0.55001c-0.89518,0.05164 -1.12994,-0.20089 -0.2373,-0.6719z" fill="#fffb7d" stroke="#959e4d" stroke-width="3.5"/><path d="M306.79661,233.28882l0.73703,-106.66412l25.66605,0.17735l-0.73703,106.66412z" fill="#ffdc92" stroke="#a58e5e" stroke-width="3.5"/><text transform="translate(314.86875,162.5719) rotate(90.11072) scale(0.43041,0.43041)" font-size="40" xml:space="preserve" fill="#000000" stroke="none" stroke-width="1" font-family="&quot;Comic Sans MS&quot;, Sans Serif" font-weight="normal" text-anchor="start"><tspan x="0" dy="0">Мёд</tspan></text></g></g></svg>