<svg version="1.1" xmlns="http://www.w3.org/2000/svg" xmlns:xlink="http://www.w3.org/1999/xlink" width="239.05257" height="101.04903" viewBox="0,0,239.05257,101.04903"><g transform="translate(-188.5,-82.39933)"><g stroke="none" stroke-miterlimit="10"><text transform="translate(296.1973,161.28848) scale(1.77279,1.77279)" font-size="40" xml:space="preserve" fill="#313131" stroke-width="1" stroke-linecap="butt" font-family="&quot;Comic Sans MS&quot;, Sans Serif" font-weight="normal" text-anchor="start"><tspan x="0" dy="0"> - </tspan></text><text transform="translate(353.85257,146.9316) scale(0.5,0.5)" font-size="40" xml:space="preserve" fill="#313131" stroke-width="1" stroke-linecap="butt" font-family="&quot;Comic Sans MS&quot;, Sans Serif" font-weight="normal" text-anchor="start"><tspan x="0" dy="0">молоко</tspan></text><path d="M296.16668,158.41161c0,0 -2.16253,16.33333 -11.06771,16.33333c-11.3887,0 -60.71173,-2.42096 -84.68284,-7.1632c-15.29353,-3.02555 -10.58279,-9.17013 -10.58279,-9.17013l-1.33334,-43.33334c0,0 10.5939,-4.86867 19.00086,-3.39112c5.42547,0.95354 17.87246,-0.38896 29.01245,-1.26927c11.7551,-0.92892 23.88481,2.43187 33.93409,2.18113c14.02447,-0.34993 25.71927,2.14593 25.71927,2.14593z" fill="#ffffff" stroke-width="1.5" stroke-linecap="round"/></g></g></svg>