<svg version="1.1" xmlns="http://www.w3.org/2000/svg" xmlns:xlink="http://www.w3.org/1999/xlink" width="62.90957" height="65.70319" viewBox="0,0,62.90957,65.70319"><g transform="translate(-288.54543,-145.87605)"><g stroke-miterlimit="10"><path d="M291.22844,207.20988l4.11022,-56.20988h53.4329l-4.11022,58z" fill="#b29576" stroke="#815c34" stroke-width="5" stroke-linecap="butt"/><path d="M330.28268,154.93855c0,3.62437 -3.24594,6.5625 -7.25,6.5625c-4.00406,0 -7.25,-2.93813 -7.25,-6.5625c0,-3.62437 3.24594,-6.5625 7.25,-6.5625c4.00406,0 7.25,2.93813 7.25,6.5625z" fill="#b37676" stroke="#823434" stroke-width="5" stroke-linecap="butt"/><path d="M341.28923,191.34468c0,2.08801 -4.7101,3.52692 -12.45347,4.58108c-0.81231,0.11058 -2.08421,2.13489 -2.95086,2.19016c-1.81934,0.11601 -13.42546,-0.15561 -15.82949,-0.37103c-2.03886,-0.18269 -3.05029,-2.16143 -4.55061,-2.63582c-4.44042,-1.40402 -7.31129,-2.17081 -7.31129,-3.76439c0,-2.76687 9.6473,-5.00988 21.54786,-5.00988c11.90056,0 21.54786,2.243 21.54786,5.00988z" fill="#cacaca" stroke="#999999" stroke-width="2" stroke-linecap="butt"/><path d="M341.50471,191.1292c0,2.52887 -9.7679,4.57892 -21.81721,4.57892c-12.04931,0 -21.81721,-2.05005 -21.81721,-4.57892c0,-2.52887 9.7679,-4.57892 21.81721,-4.57892c12.04931,0 21.81721,2.05005 21.81721,4.57892z" fill="#ffffff" stroke="#bababa" stroke-width="2" stroke-linecap="butt"/><path d="M339.88861,191.1292c0,1.39832 -6.68076,2.53187 -14.92189,2.53187c-8.24113,0 -14.92189,-1.13356 -14.92189,-2.53187c0,-1.39832 6.68076,-2.53187 14.92189,-2.53187c8.24113,0 14.92189,1.13356 14.92189,2.53187z" fill-opacity="0.30588" fill="#000000" stroke="none" stroke-width="0" stroke-linecap="butt"/><g stroke-width="2"><path d="M332.19614,177.03552c0,0 2.84602,4.39584 2.30722,7.62142c-0.5388,3.22558 -4.73516,6.91355 -4.73516,6.91355l-25.2721,0.43351l-0.41491,-8.09748l28.11495,-6.871z" fill="#f4ffd4" stroke="#b1b99a" stroke-linecap="round"/><path d="M324.0649,166.71718c1.06972,1.28151 4.88311,5.73394 6.7774,8.00327c0.66183,0.79286 0.3225,1.58267 -0.53022,1.78598c-3.34794,0.79823 -24.73904,5.89836 -24.73904,5.89836c0,0 13.95347,-13.71029 16.21674,-15.93413c0.59925,-0.58882 1.72554,-0.41187 2.27512,0.24651z" fill="#fffcb1" stroke="#aba976" stroke-linecap="round"/><path d="M326.04964,173.05805c-0.34035,1.57011 -1.98338,2.54658 -3.66979,2.18101c-1.68641,-0.36557 -2.77761,-1.93475 -2.43725,-3.50485c0.34035,-1.57011 1.98338,-2.54659 3.66979,-2.18101c1.68641,0.36557 2.77761,1.93475 2.43725,3.50485z" fill="#723e78" stroke="#512c55" stroke-linecap="butt"/></g></g></g></svg>