<svg version="1.1" xmlns="http://www.w3.org/2000/svg" xmlns:xlink="http://www.w3.org/1999/xlink" width="180.59561" height="101.04903" viewBox="0,0,180.59561,101.04903"><g transform="translate(-190.27689,-182.09446)"><g stroke-miterlimit="10"><text transform="translate(285.37015,260.98361) scale(1.77279,1.77279)" font-size="40" xml:space="preserve" fill="#313131" stroke="none" stroke-width="1" stroke-linecap="butt" font-family="&quot;Comic Sans MS&quot;, Sans Serif" font-weight="normal" text-anchor="start"><tspan x="0" dy="0"> - </tspan></text><text transform="translate(338.17875,246.62672) scale(0.5,0.5)" font-size="40" xml:space="preserve" fill="#313131" stroke="none" stroke-width="1" stroke-linecap="butt" font-family="&quot;Comic Sans MS&quot;, Sans Serif" font-weight="normal" text-anchor="start"><tspan x="0" dy="0">сок</tspan></text><path d="M296.61022,213.67481l-0.66667,26.66666c0,0 -3.46022,7.89217 -5.87698,10.8268c-2.23582,2.71492 -7.45635,6.83987 -7.45635,6.83987c0,0 -8.58621,3.77617 -14.15118,4.58563c-6.50878,0.94673 -22.18215,1.41438 -22.18215,1.41438c0,0 -19.69412,-0.55331 -28.03089,-1.33866c-2.80708,-0.26443 -7.31102,-0.63732 -10.40483,-1.3598c-4.15136,-0.96946 -6.56428,-2.30153 -6.56428,-2.30153c0,0 -4.25065,-2.87055 -6.24195,-5.57668c-2.29796,-3.12287 -3.75805,-11.42332 -3.75805,-11.42332l-0.66667,-21.33334l-0.33333,-7.33333z" fill="#fac800" stroke="#313131" stroke-width="0" stroke-linecap="round"/></g></g></svg>