<svg version="1.1" xmlns="http://www.w3.org/2000/svg" xmlns:xlink="http://www.w3.org/1999/xlink" width="62.90957" height="65.70319" viewBox="0,0,62.90957,65.70319"><g transform="translate(-288.54543,-145.87605)"><g stroke-miterlimit="10"><path d="M291.22844,207.20988l4.11022,-56.20988h53.4329l-4.11022,58z" fill="#b29576" stroke="#815c34" stroke-width="5" stroke-linecap="butt"/><path d="M330.28268,154.93855c0,3.62437 -3.24594,6.5625 -7.25,6.5625c-4.00406,0 -7.25,-2.93813 -7.25,-6.5625c0,-3.62437 3.24594,-6.5625 7.25,-6.5625c4.00406,0 7.25,2.93813 7.25,6.5625z" fill="#b37676" stroke="#823434" stroke-width="5" stroke-linecap="butt"/><path d="M311.40186,175.20144c8.0998,-7.43364 16.87537,-12.61007 22.4211,-6.56737c5.54573,6.0427 5.76155,21.01629 -2.33825,28.44993c-8.0998,7.43364 -21.93271,5.38608 -27.47844,-0.65662c-5.54573,-6.0427 -0.70421,-13.79231 7.39558,-21.22595z" fill="#997650" stroke="#7a5d3f" stroke-width="2.5" stroke-linecap="butt"/><path d="M331.21973,194.90789c-5.95593,7.33996 -14.86693,9.97726 -19.90328,5.89057c-5.03634,-4.08669 -4.29087,-13.34982 1.66507,-20.68978c5.95593,-7.33996 14.86693,-9.97726 19.90328,-5.89057c5.03634,4.08669 4.29087,13.34982 -1.66507,20.68978z" fill="#ff9bb8" stroke="none" stroke-width="0" stroke-linecap="butt"/><path d="M334.16627,182.54505c1.06654,0.67815 0.3884,1.74469 0.3884,1.74469l-0.78181,1.20747c-0.4604,1.56893 -0.41676,2.9376 -0.19559,4.36372l0.13605,0.35597c0.1796,0.31797 -0.49843,1.11035 -0.6404,1.47754c-0.25174,0.65105 0.29347,1.46855 -0.35758,1.21682c-0.0217,-0.00839 -0.04303,-0.01732 -0.06399,-0.02674l-1.96275,-0.86838c-1.20318,-0.36688 0.78306,1.64035 -0.41192,2.21063c-0.19,0.09067 -4.26848,-3.01501 -4.26296,-2.80455c0.01819,0.69384 3.87396,2.77762 3.76228,3.46265c-0.64262,3.94211 -5.57979,4.04934 -9.53415,4.16775c0,0 -1.26359,0.02736 -1.29095,-1.23623c-0.02736,-1.26359 1.23623,-1.29095 1.23623,-1.29095c0.76525,-0.00867 1.80822,0.44536 2.29109,-0.14837c1.08636,-1.3358 0.76841,-3.64343 1.01927,-5.19623c0.11966,-0.74062 -0.03009,-1.733 0.57548,-2.17585c1.9786,-1.44696 4.5359,-0.38634 6.63121,0.35303c-0.31467,-1.49501 0.39888,-3.69799 0.77024,-4.91285l0.94714,-1.51169c0,0 0.67815,-1.06654 1.74469,-0.3884z" fill="#ff0000" stroke="none" stroke-width="0.5" stroke-linecap="butt"/><path d="M335.89687,185.55928c-0.6173,1.70206 -0.90471,4.13391 -2.26523,5.41539c-0.20253,0.19076 -0.54949,0.36701 -0.95641,0.53272c-1.12272,0.45722 -2.70192,0.83432 -2.96369,1.21536c-0.82261,1.19742 -1.09605,2.57134 -2.01212,3.66934c-0.50756,0.60836 -2.02346,1.06985 -2.49012,1.80378c-0.56115,0.88254 -0.17999,1.69884 -1.3208,2.53753c-1.64471,1.20913 -3.83056,0.51386 -5.68686,0.46978c-1.26405,-0.03002 -3.96008,1.53319 -5.14869,0.22672c-2.86843,-3.1529 2.60271,-4.47788 5.06571,-4.44829c0.86999,0.01046 2.3718,0.98817 2.60585,0.15018c0.55083,-1.97221 2.82489,-2.21013 3.89402,-3.72351c0.9002,-1.27424 0.97981,-2.6377 2.24608,-3.80832c1.09272,-1.01018 2.19935,-0.95522 3.50362,-1.38982c1.05947,-0.35303 2.16611,-8.10727 2.11242,-8.46201c-0.44694,-0.56567 -0.59167,-1.34625 -0.31285,-2.06735c0.36796,-0.95162 1.35137,-1.48362 2.31965,-1.31709c3.4114,-0.77637 2.2748,6.80944 1.40939,9.19559z" fill="#7eff66" stroke="none" stroke-width="0.5" stroke-linecap="butt"/><path d="M308.72119,171.65747c8.0998,-7.43364 19.16168,-8.56121 24.7074,-2.5185c5.54573,6.0427 3.47525,16.96744 -4.62455,24.40107c-8.0998,7.43364 -19.16168,8.56121 -24.7074,2.5185c-5.54573,-6.0427 -3.47525,-16.96744 4.62455,-24.40107z" fill="#af865b" stroke="#8d6c49" stroke-width="2.5" stroke-linecap="butt"/><path d="M306.83302,184.398c0,0 3.75691,2.22437 5.13291,3.72368c1.32854,1.44759 2.98569,5.12247 2.98569,5.12247" fill="none" stroke="#8d6c49" stroke-width="3" stroke-linecap="round"/><path d="M312.74321,178.68797c0,0 4.14415,2.69923 5.66184,4.37909c1.49462,1.65432 3.37618,5.62464 3.37618,5.62464" fill="none" stroke="#8d6c49" stroke-width="3" stroke-linecap="round"/><path d="M318.75653,172.31148c0,0 4.88305,2.17738 6.32554,4.1002c1.32015,1.75974 3.57346,6.68589 3.57346,6.68589" fill="none" stroke="#8d6c49" stroke-width="3" stroke-linecap="round"/></g></g></svg>