<svg version="1.1" xmlns="http://www.w3.org/2000/svg" xmlns:xlink="http://www.w3.org/1999/xlink" width="55.78572" height="31.35714" viewBox="0,0,55.78572,31.35714"><g transform="translate(-188.64955,-158.25)"><g stroke-width="2.5" stroke-miterlimit="10"><path d="M189.89955,179.5l15.42857,-0.57143" fill="none" stroke="#313131" stroke-linecap="round"/><path d="M196.7567,172.78571l0.57143,11.28571" fill="none" stroke="#313131" stroke-linecap="round"/><path d="M243.18527,173.92857c0,7.96868 -6.39593,14.42857 -14.28571,14.42857c-7.88978,0 -14.28571,-6.45989 -14.28571,-14.42857c0,-7.96868 6.39593,-14.42857 14.28571,-14.42857c7.88978,0 14.28571,6.45989 14.28571,14.42857z" fill="#ffa2a2" stroke="#f14444" stroke-linecap="butt"/><path d="M221.96205,169.04464l4,1.42857" fill="none" stroke="#7b2222" stroke-linecap="round"/><path d="M232.28349,170.61607l4.28571,-1.28571" fill="none" stroke="#7b2222" stroke-linecap="round"/><path d="M226.34598,181.64286c0,0 2.47384,-1.1875 3.66071,-1.1875c1.28198,0 3.76786,1.1875 3.76786,1.1875" fill="none" stroke="#7b2222" stroke-linecap="round"/><path d="M225.14955,171.83929c0,0.47339 -0.41574,0.85714 -0.92857,0.85714c-0.51284,0 -0.92857,-0.38376 -0.92857,-0.85714c0,-0.47339 0.41574,-0.85714 0.92857,-0.85714c0.51284,0 0.92857,0.38376 0.92857,0.85714z" fill="#7b2222" stroke="#7b2222" stroke-linecap="butt"/><path d="M234.71205,172.04464c0,0.39449 -0.3198,0.71429 -0.71429,0.71429c-0.39449,0 -0.71429,-0.3198 -0.71429,-0.71429c0,-0.39449 0.3198,-0.71429 0.71429,-0.71429c0.39449,0 0.71429,0.3198 0.71429,0.71429z" fill="#7b2222" stroke="#7b2222" stroke-linecap="butt"/></g></g></svg>