<svg version="1.1" xmlns="http://www.w3.org/2000/svg" xmlns:xlink="http://www.w3.org/1999/xlink" width="95.60592" height="72.94833" viewBox="0,0,95.60592,72.94833"><defs><radialGradient cx="263.55792" cy="196.34069" r="46.38784" gradientUnits="userSpaceOnUse" id="color-1"><stop offset="0" stop-color="#202020"/><stop offset="1" stop-color="#202020" stop-opacity="0"/></radialGradient></defs><g transform="translate(-206.25937,-142.5)"><g data-paper-data="{&quot;isPaintingLayer&quot;:true}" fill-rule="nonzero" stroke-linejoin="miter" stroke-miterlimit="10" stroke-dasharray="" stroke-dashoffset="0" style="mix-blend-mode: normal"><path d="M262.6601,195.69609c25.6193,0 39.2052,3.75174 39.2052,8.37974c0,4.62799 -31.54248,11.3725 -57.16178,11.3725c-25.61929,0 -24.83994,-6.14595 -24.83994,-10.77395c0,-4.62799 17.17723,-8.97829 42.79652,-8.97829z" fill="url(#color-1)" stroke="none" stroke-width="0" stroke-linecap="butt"/><path d="M274.85938,199.1c0,0 -22.71672,2.8 -33.8,2.8c-11.11662,0 -32.8,-2.8 -32.8,-2.8" fill="none" stroke="#4e4e4e" stroke-width="4" stroke-linecap="round"/><path d="M270.45937,175.8c0,4.51595 3.3771,19.49737 0.27791,22.91479c-1.14784,1.26571 -2.52402,0.49404 -4.68497,0.7167c-6.91766,0.7128 -18.57846,1.46851 -25.39294,1.46851c-5.52438,0 -13.04331,-0.73289 -19.36726,-1.34064c-3.35561,-0.32248 -6.80583,0.68347 -8.49487,-0.99178c-3.59264,-3.56332 -1.53787,-17.26861 -1.53787,-22.16758c0,-11.54275 15.10923,-20.1 29.8,-20.1c14.69077,0 29.4,7.95725 29.4,19.5z" fill="#6a6a6a" stroke="#4e4e4e" stroke-width="4" stroke-linecap="butt"/><path d="M239.65939,146.5l0.2,9.8" fill="none" stroke="#4e4e4e" stroke-width="4" stroke-linecap="round"/><path d="M234.65939,144.5l10,0.2" fill="none" stroke="#4e4e4e" stroke-width="4" stroke-linecap="round"/></g></g></svg>