<svg version="1.1" xmlns="http://www.w3.org/2000/svg" xmlns:xlink="http://www.w3.org/1999/xlink" width="217.45251" height="101.04903" viewBox="0,0,217.45251,101.04903"><g transform="translate(-185.98132,-82.39933)"><g stroke-miterlimit="10"><path d="M296.16668,158.41159c0,0 -2.21312,16.33333 -11.32662,16.33333c-11.65512,0 -62.13197,-2.42096 -86.66385,-7.1632c-15.6513,-3.02555 -10.83036,-9.17013 -10.83036,-9.17013l-1.36453,-43.33334c0,0 10.84173,-4.86867 19.44535,-3.39112c5.55239,0.95354 18.29055,-0.38896 29.69114,-1.26927c12.03009,-0.92892 24.44355,2.43187 34.72792,2.18113c14.35255,-0.34993 26.32093,2.14593 26.32093,2.14593z" fill="#793a1b" stroke="#313131" stroke-width="0" stroke-linecap="round"/><text transform="translate(296.1973,161.28848) scale(1.77279,1.77279)" font-size="40" xml:space="preserve" fill="#313131" stroke="none" stroke-width="1" stroke-linecap="butt" font-family="&quot;Comic Sans MS&quot;, Sans Serif" font-weight="normal" text-anchor="start"><tspan x="0" dy="0"> - </tspan></text><text transform="translate(353.85259,146.93159) scale(0.5,0.5)" font-size="40" xml:space="preserve" fill="#313131" stroke="none" stroke-width="1" stroke-linecap="butt" font-family="&quot;Comic Sans MS&quot;, Sans Serif" font-weight="normal" text-anchor="start"><tspan x="0" dy="0">кофе</tspan></text></g></g></svg>