<svg version="1.1" xmlns="http://www.w3.org/2000/svg" xmlns:xlink="http://www.w3.org/1999/xlink" width="135.33454" height="136.07924" viewBox="0,0,135.33454,136.07924"><g transform="translate(-379.09925,-170.30419)"><g fill="#d1af8a" stroke="#a87744" stroke-width="5" stroke-miterlimit="10"><path d="M381.78226,299.76099l9.28343,-126.95679h120.68466l-9.28343,131zM466.85334,256.28c0,-5.52284 -4.47715,-10 -10,-10c-5.52285,0 -10,4.47715 -10,10c0,4.89913 3.52302,8.97543 8.17382,9.83364c-5.13635,0.42005 -9.17382,4.7217 -9.17382,9.96636c0,5.52285 4.47715,10 10,10c5.52285,0 10,-4.47715 10,-10c0,-4.89914 -3.52302,-8.97543 -8.17382,-9.83364c5.13634,-0.42005 9.17382,-4.72171 9.17382,-9.96636zM435.65334,253.28c0,-5.52284 -4.47715,-10 -10,-10c-5.52285,0 -10,4.47716 -10,10c0,4.35012 2.77766,8.05149 6.65613,9.42725c-5.17546,0.38057 -9.25613,4.70011 -9.25613,9.97275c0,5.52285 4.47715,10 10,10c5.52285,0 10,-4.47715 10,-10c0,-4.35012 -2.77766,-8.05149 -6.65612,-9.42725c5.17545,-0.38057 9.25612,-4.70012 9.25612,-9.97275zM429.45334,238.68c5.52285,0 10,-4.47716 10,-10c0,-5.52284 -4.47715,-10 -10,-10c-5.52285,0 -10,4.47716 -10,10c0,5.52284 4.47715,10 10,10zM399.25334,236.08c5.52285,0 10,-4.47716 10,-10c0,-5.52284 -4.47715,-10 -10,-10c-5.52285,0 -10,4.47716 -10,10c0,5.52284 4.47715,10 10,10zM458.45334,241.68c5.52285,0 10,-4.47716 10,-10c0,-5.52284 -4.47715,-10 -10,-10c-5.52285,0 -10,4.47716 -10,10c0,5.52284 4.47715,10 10,10zM397.45334,257.68c5.52285,0 10,-4.47716 10,-10c0,-5.52284 -4.47715,-10 -10,-10c-5.52285,0 -10,4.47716 -10,10c0,5.52284 4.47715,10 10,10zM395.25334,280.08c5.52285,0 10,-4.47715 10,-10c0,-5.52285 -4.47715,-10 -10,-10c-5.52285,0 -10,4.47715 -10,10c0,5.52285 4.47715,10 10,10z"/></g></g></svg>