<svg version="1.1" xmlns="http://www.w3.org/2000/svg" xmlns:xlink="http://www.w3.org/1999/xlink" width="128.15575" height="85.27693" viewBox="0,0,128.15575,85.27693"><g transform="translate(-38.70575,-343.78233)"><g stroke-miterlimit="10"><path d="M110.51751,374.69098c0,0 14.34548,0.16615 21.12934,-1.86463c6.70143,-2.00609 22.08991,-4.16222 22.08991,-4.16222l11.56705,34.58582c0,0 -14.91229,6.05664 -21.98044,8.21302c-6.30466,1.92344 -18.97375,1.94804 -18.97375,1.94804z" fill="#ffec73" stroke="#baaf63" stroke-width="2.5" stroke-linecap="butt"/><g fill="#ffec73" stroke="#baaf63" stroke-width="2.5" stroke-linecap="butt"><path d="M55.52699,390.3381v-45.11111h46.77777v45.11111z"/><path d="M40.52699,383.22699l-0.55556,-33.44444l14.88889,-4.33334l-0.11111,44.55556z"/></g><path d="M138.0381,398.03334c0,0 -3.12544,1.28184 -4.91261,1.67899c-1.62618,0.36137 -5.37311,0.60672 -5.37311,0.60672" fill="none" stroke="#000000" stroke-width="1.5" stroke-linecap="round"/><path d="M128.46667,393.4619l-0.57143,-3.28571" fill="none" stroke="#000000" stroke-width="1.5" stroke-linecap="round"/><path d="M134.60953,392.46191l-1.14286,-3.57143" fill="none" stroke="#000000" stroke-width="1.5" stroke-linecap="round"/><g stroke="#000000"><path d="M151.60656,376.55775l7.7016,20.74964c0,0 -0.53534,1.93374 -0.72443,2.61674c-0.12166,0.43947 -0.74712,1.24935 -1.46152,1.51451c-0.29429,0.10923 -0.42365,0.33594 -0.78165,0.48762c-1.56795,0.66434 -3.85915,1.56918 -5.6897,2.24862c-1.29734,0.48153 -2.63523,0.64382 -3.12537,0.82575c-0.54475,0.20219 -1.4241,0.14638 -1.69982,-0.05354c-0.54103,-0.39231 -2.40397,-1.74317 -2.40397,-1.74317l-7.8637,-20.68947z" fill="none" stroke-width="1" stroke-linecap="round"/><path d="M145.47994,393.72522c-0.52075,-1.40299 -1.31767,-3.55007 -1.62456,-4.37688c-0.23954,-0.64537 0.03178,-1.67175 0.59323,-1.88014c1.61612,-0.59985 9.40218,-3.48979 9.40218,-3.48979l2.64742,7.13269c0,0 -7.56125,2.80649 -9.24007,3.42962c-0.62894,0.23344 -1.49736,-0.05887 -1.7782,-0.8155z" fill="none" stroke-width="1" stroke-linecap="butt"/><text transform="translate(145.64786,391.19614) rotate(-20.3629) scale(0.08958,0.08958)" font-size="40" xml:space="preserve" fill="#000000" stroke-width="2" stroke-linecap="butt" font-family="Handwriting" font-weight="normal" text-anchor="start"><tspan x="0" dy="0">Coffee</tspan></text></g><g stroke="#000000" stroke-width="1"><path d="M134.81393,382.28154c-0.56188,0.20855 -1.04603,-0.12092 -1.16723,-0.46129c-0.22135,-0.62165 -0.93841,-2.63551 -0.93841,-2.63551l0.52668,-1.7581c0,0 5.51612,-2.23184 8.30304,-3.26626c2.78529,-1.03381 8.41358,-2.93841 8.41358,-2.93841l1.52354,1.00634c0,0 0.74127,1.99713 0.97039,2.61442c0.12564,0.33851 -0.00609,0.89679 -0.38346,1.03686c-0.92836,0.34458 -4.95316,2.17274 -9.03975,3.68955c-3.30332,1.22609 -6.68481,2.1469 -8.20838,2.7124z" fill="none" stroke-linecap="round"/><path d="M146.39925,373.74079c-0.0989,-0.26645 -0.40915,-1.10232 -0.40915,-1.10232l1.45896,-0.54152c0,0 0.28515,0.76824 0.38508,1.03748c0.0637,0.17161 -0.01785,0.48616 -0.23262,0.56588c-0.25558,0.09486 -0.56849,0.211 -0.71327,0.26474c-0.15155,0.05625 -0.43275,-0.07271 -0.48901,-0.22426z" fill="#ffec73" stroke-linecap="butt"/></g><g stroke-width="1.5"><path d="M136.31542,402.33609l10.56105,-1.05753l0.56571,2.38068l-9.07894,5.0251z" fill="#959595" stroke="#656565" stroke-linecap="round"/><path d="M66.17999,426.22051c-0.52338,-1.8289 0.96541,-3.85898 3.32527,-4.53429c2.35987,-0.67532 4.6972,0.25984 5.22058,2.08874c0.52338,1.8289 -0.96541,3.85898 -3.32527,4.53429c-2.35987,0.67532 -4.6972,-0.25984 -5.22058,-2.08874z" fill="#eefaaf" stroke="#9c936d" stroke-linecap="butt"/><path d="M139.06555,402.01135c0.38825,1.35672 0.94792,3.31245 1.22278,4.27292c0.30659,1.07136 -0.76845,3.1554 -2.70597,3.70987c-7.05244,2.01819 -49.67236,14.21468 -61.8506,17.69972c-2.05866,0.58912 -3.41683,0.33732 -3.65705,-0.50211c-0.4603,-1.60851 -1.18063,-4.12564 -1.46733,-5.12751c-0.2336,-0.81634 0.65032,-2.22015 2.7094,-2.80941c12.35035,-3.53428 56.02617,-16.03295 62.49154,-17.88314c1.56828,-0.44879 3.01639,-0.20202 3.25724,0.63964z" fill="#b0f0fb" stroke="#6d949b" stroke-linecap="butt"/><path d="M146.0224,402.73644c-0.24481,-0.85545 0.17848,-1.72687 0.94544,-1.94634c0.76695,-0.21948 1.58715,0.29608 1.83195,1.15153c0.24481,0.85545 -0.17848,1.72687 -0.94544,1.94634c-0.76695,0.21948 -1.58716,-0.29608 -1.83196,-1.15153z" fill="#6d6d6d" stroke="#515151" stroke-linecap="butt"/></g></g></g></svg>