<svg version="1.1" xmlns="http://www.w3.org/2000/svg" xmlns:xlink="http://www.w3.org/1999/xlink" width="142.31636" height="90.72906" viewBox="0,0,142.31636,90.72906"><defs><radialGradient cx="305.32224" cy="200.11276" r="77.5" gradientUnits="userSpaceOnUse" id="color-1"><stop offset="0" stop-color="#202020"/><stop offset="1" stop-color="#202020" stop-opacity="0"/></radialGradient></defs><g transform="translate(-232.31796,-141.30678)"><g stroke-miterlimit="10"><path d="M303.82224,199.03584c42.80207,0 65.5,6.26802 65.5,14c0,7.73198 -52.69793,19 -95.5,19c-42.80207,0 -41.5,-10.26802 -41.5,-18c0,-7.73198 28.69793,-15 71.5,-15z" fill="url(#color-1)" stroke="none" stroke-width="0"/><path d="M368.8427,175.92752c0,9.85789 13.34749,29.399 -10.04359,37.97266c-12.64,4.633 -61.74264,2.10426 -71.04227,2.10426c-26.50917,0 -19.57244,-21.62996 -19.57244,-36.81485c0,-15.18487 22.42197,-18.17442 48.93113,-18.17442c26.50917,0 51.72719,-0.27253 51.72719,14.91234z" fill="#785c3e" stroke="#695137" stroke-width="4"/><path d="M367.44467,170.8014c0,15.18487 -21.48993,27.49462 -47.9991,27.49462c-26.50917,0 -47.9991,-12.30978 -47.9991,-27.49462c0,-15.18487 21.48993,-27.49462 47.9991,-27.49462c26.50917,0 47.9991,12.30978 47.9991,27.49462z" fill="#af865b" stroke="#8d6c49" stroke-width="4"/><path d="M303.56042,160.56206c6.80752,-11.12015 29.90668,-7.86799 34.28142,3.27864c6.15187,15.67463 -20.41628,22.52713 -30.85174,12.18698c-1.3438,-0.74891 -2.47278,-1.75297 -3.29146,-2.93111c-3.12103,-1.5147 -1.56414,-10.20527 -0.13824,-12.5345z" fill="#723e78" stroke="#532d57" stroke-width="4"/></g></g></svg>