<svg version="1.1" xmlns="http://www.w3.org/2000/svg" xmlns:xlink="http://www.w3.org/1999/xlink" width="132.96614" height="191.22667" viewBox="0,0,132.96614,191.22667"><g transform="translate(-117.03039,-255.16932)"><g stroke-width="5" stroke-miterlimit="10"><path d="M237.0964,280.78813v141.24525c0,0 -7.49705,10.38054 -10.14504,14.04698c-1.70382,2.35913 -7.24433,5.81563 -12.10729,5.81563c-2.00328,0 -3.28067,1.0691 -5.75934,1.18162c-10.85613,0.4928 -26.57347,0.81838 -39.03419,0.81838c-8.83117,0 -17.19597,-2 -20.5324,-2c-3.70816,0 -8.84532,-2.28664 -10.05094,-4.09507c-2.36571,-3.54857 -10.51169,-15.76754 -10.51169,-15.76754l-1.10348,-141.24525z" fill="none" stroke="#000000" stroke-linecap="round"/><g stroke="#c1b2a7"><path d="M125.48974,291.32541c-3.82476,0 -5.98978,-3.04632 -5.95902,-5.35187c0.05618,-4.21078 0.23818,-17.85183 0.23818,-17.85183l7.05518,-9.34891c0,0 37.95844,-1.10348 56.92933,-1.10348c18.95978,0 56.86268,1.10348 56.86268,1.10348l6.88045,9.40409c0,0 0,13.59469 0,17.79666c0,2.30428 -2.02792,5.35187 -4.59668,5.35187c-6.31948,0 -34.45911,2 -62.27701,2c-22.48608,0 -44.76194,-2 -55.1331,-2z" fill="#e8e5e3" stroke-linecap="round"/><path d="M213.54733,266.55232c0,-1.81373 0,-7.50365 0,-7.50365h9.93131c0,0 0,5.22952 0,7.06226c0,1.16815 -1.18637,2.86904 -2.64835,2.86904c-1.73974,0 -3.86977,0 -4.85531,0c-1.03164,0 -2.42765,-1.39601 -2.42765,-2.42765z" fill="#c1b2a7" stroke-linecap="butt"/></g></g></g></svg>