<svg version="1.1" xmlns="http://www.w3.org/2000/svg" xmlns:xlink="http://www.w3.org/1999/xlink" width="125.28132" height="80.44038" viewBox="0,0,125.28132,80.44038"><g transform="translate(-257.46213,-139.77981)"><g stroke-width="4" stroke-miterlimit="10"><path d="M379.5142,182.20946c0,4.88996 2.99831,9.91343 -0.37045,14.32378c-9.53603,12.48452 -35.83927,21.68695 -60.00447,21.68695c-25.23816,0 -50.04442,-9.04475 -58.56679,-21.78416c-2.52033,-3.76747 -0.64524,-7.85805 -0.64524,-12.13339c0,-18.73216 26.51013,-33.91756 59.21203,-33.91756c32.70189,0 60.37491,13.09225 60.37491,31.82439z" fill="#af865b" stroke="#8d6c49"/><path d="M377.88619,175.69737c0,18.73216 -26.51013,33.91756 -59.21203,33.91756c-32.70189,0 -59.21203,-15.18543 -59.21203,-33.91756c0,-18.73216 26.51013,-33.91756 59.21203,-33.91756c32.70189,0 59.21203,15.18543 59.21203,33.91756z" fill="#af865b" stroke="#8d6c49"/><path d="M362.18736,175.46479c0,13.72895 -19.42948,24.85843 -43.39692,24.85843c-23.96746,0 -43.39692,-11.12951 -43.39692,-24.85843c0,-13.72895 19.42948,-24.85843 43.39692,-24.85843c23.96746,0 43.39692,11.12951 43.39692,24.85843z" fill="#ffe1c1" stroke="#e8cdb1"/></g></g></svg>