<svg version="1.1" xmlns="http://www.w3.org/2000/svg" xmlns:xlink="http://www.w3.org/1999/xlink" width="133.70242" height="97.47231" viewBox="0,0,133.70242,97.47231"><g transform="translate(-113.14879,-312.11736)"><g stroke-width="4.5" stroke-miterlimit="10"><path d="M243.96318,387.2899c0,6.18265 -13.94669,10.44329 -36.87497,13.56466c-2.40527,0.32744 -6.1714,6.32147 -8.73755,6.48511c-5.3871,0.34349 -39.75306,-0.46077 -46.87145,-1.09862c-6.0371,-0.54095 -9.03196,-6.40004 -13.47444,-7.80472c-13.14817,-4.15734 -21.6489,-6.42781 -21.6489,-11.14643c0,-8.19277 28.56587,-14.83435 63.80367,-14.83435c35.23779,0 63.80367,6.64158 63.80367,14.83435z" fill="#cacaca" stroke="#999999" stroke-linecap="butt"/><path d="M244.60121,386.65187c0,7.48803 -28.92294,13.55828 -64.60121,13.55828c-35.67827,0 -64.60121,-6.07026 -64.60121,-13.55828c0,-7.48803 28.92294,-13.55828 64.60121,-13.55828c35.67827,0 64.60121,6.07026 64.60121,13.55828z" fill="#ffffff" stroke="#bababa" stroke-linecap="butt"/><path d="M239.81591,386.65187c0,4.14045 -19.78187,7.49694 -44.18403,7.49694c-24.40217,0 -44.18403,-3.35648 -44.18403,-7.49694c0,-4.14045 19.78187,-7.49694 44.18403,-7.49694c24.40217,0 44.18403,3.35648 44.18403,7.49694z" fill-opacity="0.30588" fill="#000000" stroke="none" stroke-linecap="butt"/><g><path d="M217.03834,344.92018c0,0 8.42714,13.01618 6.83171,22.56719c-1.5954,9.551 -14.02091,20.47116 -14.02091,20.47116l-74.83121,1.28363l-1.22855,-23.9768l83.24896,-20.34518z" fill="#f4ffd4" stroke="#b1b99a" stroke-linecap="round"/><path d="M192.96156,314.36736c3.16747,3.79458 14.45898,16.97831 20.06802,23.69786c1.95969,2.34767 0.95494,4.68632 -1.56998,5.28833c-9.91333,2.36357 -73.25281,17.46519 -73.25281,17.46519c0,0 41.31652,-40.59646 48.01811,-47.18128c1.7744,-1.74349 5.10935,-1.21956 6.73667,0.72991z" fill="#fffcb1" stroke="#aba976" stroke-linecap="round"/><path d="M198.83841,333.14282c-1.00779,4.64911 -5.87282,7.54048 -10.86633,6.45803c-4.9935,-1.08247 -8.22455,-5.72883 -7.21675,-10.37795c1.00779,-4.64911 5.87282,-7.5405 10.86633,-6.45803c4.9935,1.08247 8.22455,5.72883 7.21675,10.37795z" fill="#723e78" stroke="#512c55" stroke-linecap="butt"/></g></g></g></svg>