<svg version="1.1" xmlns="http://www.w3.org/2000/svg" xmlns:xlink="http://www.w3.org/1999/xlink" width="165.9283" height="96.08306" viewBox="0,0,165.9283,96.08306"><defs><radialGradient cx="304.32223" cy="190.36276" r="77.5" gradientUnits="userSpaceOnUse" id="color-1"><stop offset="0" stop-color="#202020"/><stop offset="1" stop-color="#202020" stop-opacity="0"/></radialGradient></defs><g transform="translate(-231.31795,-126.20278)"><g stroke-miterlimit="10"><path d="M302.82223,189.28584c42.80207,0 65.5,6.26802 65.5,14c0,7.73198 -52.69793,19 -95.5,19c-42.80207,0 -41.5,-10.26802 -41.5,-18c0,-7.73198 28.69793,-15 71.5,-15z" fill="url(#color-1)" stroke="none" stroke-width="0"/><path d="M395.03972,184.04238c0,6.8463 -15.44373,11.56426 -40.83316,15.02069c-2.66346,0.3626 -6.83383,7.00002 -9.67546,7.18123c-5.96535,0.38036 -44.02019,-0.51022 -51.90267,-1.21655c-6.68513,-0.59903 -10.00148,-7.08703 -14.92079,-8.64248c-14.5595,-4.60361 -23.97269,-7.11778 -23.97269,-12.3429c0,-9.0722 31.63216,-16.42667 70.65239,-16.42667c39.02024,0 70.65239,7.3545 70.65239,16.42667z" fill="#cacaca" stroke="#999999" stroke-width="3"/><path d="M395.74625,183.33585c0,8.29179 -32.02755,15.01363 -71.53557,15.01363c-39.50799,0 -71.53557,-6.72184 -71.53557,-15.01363c0,-8.29179 32.02755,-15.01363 71.53557,-15.01363c39.50799,0 71.53557,6.72184 71.53557,15.01363z" fill="#ffffff" stroke="#bababa" stroke-width="3"/><g stroke-width="3"><path d="M349.33937,139.92401c3.80877,9.08296 -6.38196,18.33767 -22.76158,20.67102c-16.37965,2.33334 -32.74559,-3.13829 -36.55435,-12.22123c-3.80877,-9.08296 6.38196,-18.33767 22.76158,-20.67102c16.37965,-2.33334 32.74559,3.13829 36.55438,12.22123z" fill="#af865b" stroke="#72583b"/><path d="M301.22785,132.65755c0,1.53706 -2.36686,2.78308 -5.28653,2.78308c-1.5875,0 -5.74012,-0.36838 -6.70917,-0.95161c-0.81317,-0.48942 1.42261,-1.13016 1.42261,-1.83147c0,-0.78075 2.71203,-0.74892 4.08537,-1.50671c1.33032,-0.73407 1.29935,-2.27033 2.73596,-2.27033c2.91967,0 3.75175,2.23999 3.75175,3.77705z" fill="#261900" stroke="#1c1200"/><path d="M306.54119,143.72343c1.98587,1.01135 2.03839,2.87004 0.11732,4.15153c-1.04453,0.69677 -4.25278,2.27702 -5.64393,2.3186c-1.16739,0.03489 -0.52411,-1.36803 -1.43022,-1.82947c-1.00874,-0.51371 0.81686,-1.68311 0.7414,-2.7845c-0.07307,-1.06688 -2.07832,-2.06412 -1.13306,-2.69466c1.92106,-1.28147 5.36259,-0.17284 7.34846,0.83851z" fill="#261900" stroke="#1c1200"/><path d="M330.1764,153.61487c-0.40683,1.51867 -3.07515,2.53695 -5.95986,2.27443c-1.56848,-0.14274 -5.5739,-0.88009 -6.37698,-1.54347c-0.67389,-0.55668 1.70472,-0.98873 1.89031,-1.68164c0.20665,-0.77141 2.87778,-0.49611 4.43525,-1.12133c1.50869,-0.60567 1.88469,-2.12634 3.3041,-1.99715c2.88471,0.26252 3.11398,2.5505 2.70715,4.06917z" fill="#261900" stroke="#1c1200"/><path d="M340.91079,146.38506c0.87773,1.28395 0.39227,3.08321 -1.08431,4.01872c-0.80286,0.50867 -3.11333,1.53154 -3.93647,1.35486c-0.69073,-0.14828 0.07408,-1.3999 -0.3264,-1.98571c-0.44584,-0.65219 0.94391,-1.4946 1.2057,-2.56765c0.2536,-1.03944 -0.63934,-2.31281 0.08721,-2.77313c1.47657,-0.93553 3.17651,0.66897 4.05426,1.95292z" fill="#261900" stroke="#1c1200"/><path d="M321.34562,139.79858c2.36292,0.149 4.90748,1.50507 5.68343,3.02885c0.42191,0.82852 0.95924,2.96005 0.32019,3.40927c-0.53627,0.37696 -2.11549,-0.85202 -3.1936,-0.92c-1.20023,-0.07568 -1.87208,-1.48801 -3.40202,-2.27824c-1.48202,-0.76544 -3.83549,-0.89821 -4.21728,-1.64799c-0.77596,-1.52378 2.44639,-1.74089 4.80931,-1.59189z" fill="#261900" stroke="#1c1200"/><path d="M312.25046,133.19199c0.43871,-1.37687 4.35764,-2.85682 8.75307,-3.30557c2.38993,-0.24399 8.53641,-0.55223 9.8288,-0.17871c1.08451,0.31344 -2.46428,1.23103 -2.66445,1.85927c-0.22285,0.69938 -4.29663,1.08768 -6.58045,1.97759c-2.21228,0.86201 -2.60414,2.23344 -4.76692,2.45422c-4.39543,0.44872 -5.00875,-1.42993 -4.57005,-2.8068z" fill="#261900" stroke="#1c1200"/></g><g stroke-width="3"><path d="M382.93579,154.53875c9.69945,8.21066 6.67461,20.17723 -6.75608,26.72808c-13.43069,6.55085 -32.18139,5.20531 -41.88082,-3.00535c-9.69945,-8.21066 -6.67461,-20.17723 6.75608,-26.72808c13.43069,-6.55085 32.18139,-5.20531 41.88082,3.00535z" fill="#af865b" stroke="#72583b"/><path d="M333.83894,159.50124c1.05016,1.55437 -0.26963,3.42008 -2.94783,4.16715c-1.4562,0.4062 -5.51704,1.09626 -6.80441,0.75441c-1.0803,-0.28685 0.5328,-1.50692 0.05364,-2.21613c-0.53343,-0.78955 1.97606,-1.45132 2.71807,-2.56905c0.71878,-1.08273 -0.35927,-2.62839 0.95852,-2.99598c2.67818,-0.74708 4.97186,1.30522 6.02201,2.85959z" fill="#261900" stroke="#1c1200"/><path d="M346.27327,169.33218c2.51259,0.51459 3.83069,2.38079 2.94405,4.16826c-0.48208,0.97189 -2.34532,3.39086 -3.593,3.78887c-1.04698,0.33399 -1.41543,-1.24931 -2.56187,-1.48409c-1.27627,-0.26139 -0.40066,-1.91109 -1.22234,-3.00557c-0.79595,-1.0602 -3.31669,-1.55556 -2.88041,-2.43509c0.88664,-1.78746 4.80096,-1.54696 7.31357,-1.03237z" fill="#261900" stroke="#1c1200"/><path d="M374.71172,173.28726c0.66442,1.63986 -1.0875,3.35241 -3.91299,3.82506c-1.53629,0.257 -5.71418,0.53624 -6.90406,0.07089c-0.9985,-0.39051 0.88819,-1.43605 0.58505,-2.18428c-0.3375,-0.83298 2.30081,-1.23805 3.3023,-2.26887c0.97011,-0.99852 0.27605,-2.63253 1.66631,-2.86511c2.82549,-0.47265 4.59897,1.78242 5.26339,3.42228z" fill="#261900" stroke="#1c1200"/><path d="M379.61868,163.22928c1.68236,1.07382 2.46633,3.01755 1.75106,4.34145c-0.38891,0.71984 -1.80946,2.34543 -2.6852,2.37739c-0.7349,0.02681 -0.88849,-1.43461 -1.65609,-1.92457c-0.85454,-0.54545 -0.15532,-1.75295 -0.64828,-2.90508c-0.47754,-1.11604 -2.16663,-2.17527 -1.81468,-2.82668c0.71527,-1.32388 3.37085,-0.1363 5.05321,0.93751z" fill="#261900" stroke="#1c1200"/><path d="M357.1717,161.57497c2.26928,-0.45395 5.52987,0.2663 7.28273,1.60869c0.95307,0.7299 2.90229,2.74796 2.62301,3.36574c-0.23438,0.51842 -2.52263,-0.3203 -3.55804,-0.11318c-1.15267,0.23057 -2.73389,-1.02576 -4.67717,-1.43337c-1.88241,-0.39486 -4.13195,0.07309 -4.99443,-0.58743c-1.75286,-1.34239 1.05464,-2.38649 3.32391,-2.84043z" fill="#261900" stroke="#1c1200"/><path d="M344.31502,157.22123c-0.53829,-1.50464 2.04537,-4.00404 5.77066,-5.58252c2.02556,-0.85828 7.45307,-2.74274 8.89376,-2.69571c1.20895,0.03946 -1.4194,1.87546 -1.17378,2.56198c0.27341,0.76427 -3.1981,2.19936 -4.68505,3.68367c-1.44035,1.43781 -0.86282,2.92494 -2.69587,3.70164c-3.72532,1.5785 -5.57144,-0.16439 -6.10971,-1.66904z" fill="#261900" stroke="#1c1200"/></g><g stroke-width="3"><path d="M325.02811,166.37545c3.80877,9.80525 -6.38196,19.79592 -22.76158,22.31484c-16.37965,2.51889 -32.74559,-3.38787 -36.55435,-13.19309c-3.80877,-9.80525 6.38196,-19.79592 22.76158,-22.31484c16.37965,-2.51889 32.74559,3.38787 36.55438,13.19309z" fill="#af865b" stroke="#72583b"/><path d="M276.91658,158.53113c0,1.65929 -2.36686,3.0044 -5.28653,3.0044c-1.5875,0 -5.74012,-0.39767 -6.70917,-1.02729c-0.81317,-0.52834 1.42261,-1.22002 1.42261,-1.97711c0,-0.84284 2.71203,-0.80846 4.08537,-1.62651c1.33032,-0.79243 1.29935,-2.45087 2.73596,-2.45087c2.91967,0 3.75175,2.41812 3.75175,4.0774z" fill="#261900" stroke="#1c1200"/><path d="M282.22992,170.47701c1.98587,1.09176 2.03839,3.09829 0.11732,4.48167c-1.04453,0.75219 -4.25278,2.45809 -5.64393,2.50298c-1.16739,0.03766 -0.52411,-1.4768 -1.43022,-1.97495c-1.00872,-0.55457 0.81684,-1.81695 0.7414,-3.00593c-0.07309,-1.15172 -2.07832,-2.22826 -1.13306,-2.90896c1.92106,-1.38338 5.36259,-0.18659 7.34846,0.90519z" fill="#261900" stroke="#1c1200"/><path d="M305.86513,181.15504c-0.40681,1.63941 -3.07517,2.73871 -5.95986,2.4553c-1.56848,-0.15408 -5.5739,-0.95008 -6.37698,-1.66622c-0.67389,-0.60094 1.70469,-1.06733 1.89034,-1.81535c0.20665,-0.83275 2.87778,-0.53555 4.43525,-1.2105c1.50867,-0.65382 1.88469,-2.29541 3.3041,-2.15596c2.88471,0.28341 3.11396,2.75332 2.70715,4.39275z" fill="#261900" stroke="#1c1200"/><path d="M316.59953,173.35029c0.87775,1.38606 0.39227,3.32839 -1.08431,4.3383c-0.80286,0.54912 -3.11335,1.65335 -3.93647,1.46262c-0.69073,-0.16005 0.07408,-1.51122 -0.3264,-2.14362c-0.44584,-0.70404 0.94388,-1.61346 1.2057,-2.77182c0.2536,-1.1221 -0.63934,-2.49672 0.08721,-2.99366c1.47657,-1.00993 3.17651,0.72216 4.05426,2.10821z" fill="#261900" stroke="#1c1200"/><path d="M297.03436,166.24005c2.3629,0.16086 4.90745,1.62476 5.68341,3.26971c0.42191,0.89441 0.95924,3.19547 0.32019,3.68039c-0.53627,0.40692 -2.11549,-0.91978 -3.1936,-0.99316c-1.20023,-0.08171 -1.87208,-1.60634 -3.40202,-2.4594c-1.48202,-0.82634 -3.83549,-0.96964 -4.21728,-1.77904c-0.77596,-1.64495 2.44641,-1.87933 4.80931,-1.71849z" fill="#261900" stroke="#1c1200"/><path d="M287.93922,159.10807c0.43871,-1.48636 4.35761,-3.08402 8.75307,-3.56842c2.38991,-0.26339 8.53641,-0.59614 9.8288,-0.19294c1.08451,0.33835 -2.46428,1.32893 -2.66445,2.00712c-0.22285,0.755 -4.29663,1.17419 -6.58045,2.13484c-2.21228,0.93058 -2.60416,2.41105 -4.76692,2.64941c-4.39545,0.48442 -5.00875,-1.54363 -4.57002,-3.03002z" fill="#261900" stroke="#1c1200"/></g><g stroke-width="3"><path d="M350.97095,164.66844c9.69945,8.21066 6.67461,20.17723 -6.75608,26.72808c-13.43069,6.55085 -32.18139,5.20531 -41.88082,-3.00535c-9.69945,-8.21066 -6.67461,-20.17723 6.75608,-26.72808c13.43069,-6.55085 32.18139,-5.20531 41.88082,3.00535z" fill="#af865b" stroke="#72583b"/><path d="M301.8741,169.63093c1.05016,1.55437 -0.26963,3.42008 -2.94783,4.16715c-1.4562,0.4062 -5.51704,1.09626 -6.80441,0.75441c-1.0803,-0.28685 0.5328,-1.50692 0.05364,-2.21613c-0.53343,-0.78955 1.97606,-1.45132 2.71807,-2.56905c0.71878,-1.08273 -0.35927,-2.62839 0.95852,-2.99598c2.67818,-0.74708 4.97186,1.30522 6.02201,2.85959z" fill="#261900" stroke="#1c1200"/><path d="M314.30844,179.46187c2.51259,0.51459 3.83069,2.38079 2.94405,4.16826c-0.48208,0.97189 -2.34532,3.39086 -3.593,3.78887c-1.04698,0.33399 -1.41543,-1.24931 -2.56187,-1.48409c-1.27627,-0.26139 -0.40066,-1.91109 -1.22234,-3.00557c-0.79595,-1.0602 -3.31669,-1.55556 -2.88041,-2.43509c0.88664,-1.78746 4.80096,-1.54696 7.31357,-1.03237z" fill="#261900" stroke="#1c1200"/><path d="M342.74688,183.41695c0.66442,1.63986 -1.0875,3.35241 -3.91299,3.82506c-1.53629,0.257 -5.71418,0.53624 -6.90406,0.07089c-0.9985,-0.39051 0.88819,-1.43605 0.58505,-2.18428c-0.3375,-0.83298 2.30081,-1.23805 3.3023,-2.26887c0.97011,-0.99852 0.27605,-2.63253 1.66631,-2.86511c2.82549,-0.47265 4.59897,1.78242 5.26339,3.42228z" fill="#261900" stroke="#1c1200"/><path d="M347.65384,173.35898c1.68236,1.07382 2.46633,3.01755 1.75106,4.34145c-0.38891,0.71984 -1.80946,2.34543 -2.6852,2.37739c-0.7349,0.02681 -0.88849,-1.43461 -1.65609,-1.92457c-0.85454,-0.54545 -0.15532,-1.75295 -0.64828,-2.90508c-0.47754,-1.11604 -2.16663,-2.17527 -1.81468,-2.82668c0.71527,-1.32388 3.37085,-0.1363 5.05321,0.93751z" fill="#261900" stroke="#1c1200"/><path d="M325.20686,171.70466c2.26928,-0.45395 5.52987,0.2663 7.28273,1.60869c0.95307,0.7299 2.90229,2.74796 2.62301,3.36574c-0.23438,0.51842 -2.52263,-0.3203 -3.55804,-0.11318c-1.15267,0.23057 -2.73389,-1.02576 -4.67717,-1.43337c-1.88241,-0.39486 -4.13195,0.07309 -4.99443,-0.58743c-1.75286,-1.34239 1.05464,-2.38649 3.32391,-2.84043z" fill="#261900" stroke="#1c1200"/><path d="M312.35019,167.35092c-0.53829,-1.50464 2.04537,-4.00404 5.77066,-5.58252c2.02556,-0.85828 7.45307,-2.74274 8.89376,-2.69571c1.20895,0.03946 -1.4194,1.87546 -1.17378,2.56198c0.27341,0.76427 -3.1981,2.19936 -4.68505,3.68367c-1.44035,1.43781 -0.86282,2.92494 -2.69587,3.70164c-3.72532,1.5785 -5.57144,-0.16439 -6.10971,-1.66904z" fill="#261900" stroke="#1c1200"/></g></g></g></svg>