<svg version="1.1" xmlns="http://www.w3.org/2000/svg" xmlns:xlink="http://www.w3.org/1999/xlink" width="132.96614" height="191.4317" viewBox="0,0,132.96614,191.4317"><g transform="translate(-255.72286,-74.96429)"><g stroke-miterlimit="10"><path d="M377.0964,100.78813v141.24525c0,0 -7.49705,10.38054 -10.14504,14.04698c-1.70382,2.35913 -7.24433,5.81563 -12.10729,5.81563c-2.00328,0 -3.28067,1.0691 -5.75934,1.18162c-10.85613,0.4928 -26.57347,0.81838 -39.03419,0.81838c-8.83117,0 -17.19597,-2 -20.5324,-2c-3.70816,0 -8.84532,-2.28664 -10.05094,-4.09507c-2.36571,-3.54857 -10.51169,-15.76754 -10.51169,-15.76754l-1.10348,-141.24525z" fill="none" stroke="#000000" stroke-width="5" stroke-linecap="round"/><path d="M264.1822,111.12038c-3.82476,0 -5.98978,-3.04632 -5.95902,-5.35187c0.05618,-4.21078 0.23818,-17.85183 0.23818,-17.85183l7.05518,-9.34891c0,0 37.95844,-1.10348 56.92933,-1.10348c18.95978,0 56.86268,1.10348 56.86268,1.10348l6.88045,9.40409c0,0 0,13.59469 0,17.79666c0,2.30428 -2.02792,5.35187 -4.59668,5.35187c-6.31948,0 -34.45911,2 -62.27701,2c-22.48608,0 -44.76194,-2 -55.1331,-2z" fill="#e8e5e3" stroke="#c1b2a7" stroke-width="5" stroke-linecap="round"/><path d="M352.23979,86.3473c0,-1.81373 0,-7.50365 0,-7.50365h9.93131c0,0 0,5.22952 0,7.06226c0,1.16815 -1.18637,2.86904 -2.64835,2.86904c-1.73974,0 -3.86977,0 -4.85531,0c-1.03164,0 -2.42765,-1.39601 -2.42765,-2.42765z" fill="#c1b2a7" stroke="#c1b2a7" stroke-width="5" stroke-linecap="butt"/><path d="M302.58326,193.60535c0,-9.55033 0,-24.16578 0,-29.79392c0,-4.39314 3.90251,-9.93131 7.72435,-9.93131c11.00114,0 64.00175,0 64.00175,0v48.55305c0,0 -51.47034,0 -62.89827,0c-4.2813,0 -8.82783,-3.67733 -8.82783,-8.82783z" fill="#5c311b" stroke="#5c311b" stroke-width="5" stroke-linecap="butt"/><text transform="translate(309.20413,178.84709) scale(0.57169,0.57169)" font-size="40" xml:space="preserve" fill="#87563d" stroke="#87563d" stroke-width="3" stroke-linecap="butt" font-family="Handwriting" font-weight="normal" text-anchor="start"><tspan x="0" dy="0">Coffee</tspan></text></g></g></svg>