<svg version="1.1" xmlns="http://www.w3.org/2000/svg" xmlns:xlink="http://www.w3.org/1999/xlink" width="243.47989" height="101.04903" viewBox="0,0,243.47989,101.04903"><g transform="translate(-269.87387,-174.78312)"><g stroke-miterlimit="10"><text transform="translate(370.37016,253.67227) scale(1.77279,1.77279)" font-size="40" xml:space="preserve" fill="#313131" stroke="none" stroke-width="1" stroke-linecap="butt" font-family="&quot;Comic Sans MS&quot;, Sans Serif" font-weight="normal" text-anchor="start"><tspan x="0" dy="0"> - </tspan></text><text transform="translate(423.17876,239.31538) scale(0.5,0.5)" font-size="40" xml:space="preserve" fill="#313131" stroke="none" stroke-width="1" stroke-linecap="butt" font-family="&quot;Comic Sans MS&quot;, Sans Serif" font-weight="normal" text-anchor="start"><tspan x="0" dy="0">карамель</tspan></text><path d="M377.91682,213.75028l-0.67739,26.66666c0,0 -3.51585,7.89217 -5.97147,10.8268c-2.27177,2.71492 -7.57623,6.83987 -7.57623,6.83987c0,0 -8.72426,3.77617 -14.3787,4.58563c-6.61343,0.94673 -22.53879,1.41438 -22.53879,1.41438c0,0 -20.01076,-0.55331 -28.48157,-1.33866c-2.85221,-0.26443 -7.42857,-0.63732 -10.57212,-1.3598c-4.21811,-0.96946 -6.66982,-2.30153 -6.66982,-2.30153c0,0 -4.31899,-2.87055 -6.34231,-5.57668c-2.33491,-3.12287 -3.81847,-11.42332 -3.81847,-11.42332l-0.67739,-21.33334l-0.33869,-7.33333z" fill="#d27d06" stroke="#313131" stroke-width="0" stroke-linecap="round"/></g></g></svg>