<svg version="1.1" xmlns="http://www.w3.org/2000/svg" xmlns:xlink="http://www.w3.org/1999/xlink" width="62.90957" height="65.70319" viewBox="0,0,62.90957,65.70319"><g transform="translate(-288.54543,-145.87605)"><g stroke-miterlimit="10"><path d="M291.22844,207.20988l4.11022,-56.20988h53.4329l-4.11022,58z" fill="#b29576" stroke="#815c34" stroke-width="5"/><path d="M330.28268,154.93855c0,3.62437 -3.24594,6.5625 -7.25,6.5625c-4.00406,0 -7.25,-2.93813 -7.25,-6.5625c0,-3.62437 3.24594,-6.5625 7.25,-6.5625c4.00406,0 7.25,2.93813 7.25,6.5625z" fill="#b37676" stroke="#823434" stroke-width="5"/><path d="M340.48386,187.59177c0,2.00658 -4.5264,3.38937 -11.96779,4.40241c-0.78063,0.10627 -2.00293,2.05164 -2.83578,2.10475c-1.74839,0.11148 -12.90187,-0.14954 -15.21215,-0.35656c-1.95934,-0.17557 -2.93133,-2.07714 -4.37313,-2.53302c-4.26724,-1.34927 -7.02615,-2.08615 -7.02615,-3.61758c0,-2.65897 9.27106,-4.81449 20.7075,-4.81449c11.43644,0 20.7075,2.15553 20.7075,4.81449z" fill="#cacaca" stroke="#999999" stroke-width="2"/><path d="M340.69094,187.38469c0,2.43024 -9.38695,4.40034 -20.96635,4.40034c-11.57939,0 -20.96635,-1.9701 -20.96635,-4.40034c0,-2.43024 9.38695,-4.40034 20.96635,-4.40034c11.57939,0 20.96635,1.9701 20.96635,4.40034z" fill="#ffffff" stroke="#bababa" stroke-width="2"/><g><path d="M327.08955,174.66112c1.11631,2.66212 -1.87049,5.37459 -6.67119,6.05847c-4.80071,0.68388 -9.5974,-0.9198 -10.71371,-3.58192c-1.11631,-2.66212 1.87049,-5.37459 6.67119,-6.05847c4.80071,-0.68388 9.5974,0.9198 10.71372,3.58192z" fill="#af865b" stroke="#72583b" stroke-width="2.5"/><path d="M312.98855,172.53139c0,0.4505 -0.6937,0.81569 -1.54943,0.81569c-0.46528,0 -1.68237,-0.10797 -1.96639,-0.27891c-0.23833,-0.14344 0.41695,-0.33124 0.41695,-0.53679c0,-0.22883 0.79487,-0.2195 1.19738,-0.4416c0.3899,-0.21515 0.38083,-0.66541 0.80188,-0.66541c0.85573,0 1.0996,0.65652 1.0996,1.10701z" fill="#261900" stroke="#1c1200" stroke-width="1"/><path d="M314.54583,175.77469c0.58204,0.29642 0.59743,0.84118 0.03439,1.21677c-0.30614,0.20421 -1.24645,0.66737 -1.65418,0.67956c-0.34215,0.01023 -0.15361,-0.40095 -0.41918,-0.5362c-0.29565,-0.15056 0.23941,-0.4933 0.2173,-0.81611c-0.02142,-0.31269 -0.60913,-0.60497 -0.33209,-0.78978c0.56304,-0.37559 1.57172,-0.05066 2.15376,0.24576z" fill="#261900" stroke="#1c1200" stroke-width="1"/><path d="M321.47308,178.67377c-0.11924,0.44511 -0.9013,0.74355 -1.74678,0.66661c-0.45971,-0.04184 -1.63365,-0.25795 -1.86903,-0.45238c-0.19751,-0.16316 0.49963,-0.28979 0.55403,-0.49287c0.06057,-0.22609 0.84345,-0.1454 1.29993,-0.32865c0.44218,-0.17751 0.55238,-0.62321 0.9684,-0.58534c0.84548,0.07694 0.91268,0.74753 0.79344,1.19263z" fill="#261900" stroke="#1c1200" stroke-width="1"/><path d="M324.61922,176.55479c0.25725,0.37631 0.11497,0.90366 -0.3178,1.17785c-0.23531,0.14909 -0.91248,0.44888 -1.15374,0.3971c-0.20245,-0.04346 0.02171,-0.4103 -0.09566,-0.58199c-0.13067,-0.19115 0.27665,-0.43805 0.35338,-0.75255c0.07433,-0.30465 -0.18738,-0.67786 0.02556,-0.81278c0.43277,-0.2742 0.931,0.19607 1.18826,0.57238z" fill="#261900" stroke="#1c1200" stroke-width="1"/><path d="M318.88486,174.62435c0.69255,0.04367 1.43833,0.44112 1.66576,0.88772c0.12366,0.24283 0.28114,0.86756 0.09384,0.99922c-0.15717,0.11048 -0.62003,-0.24972 -0.93601,-0.26964c-0.35178,-0.02218 -0.54869,-0.43612 -0.9971,-0.66773c-0.43436,-0.22434 -1.12414,-0.26326 -1.23604,-0.48301c-0.22743,-0.4466 0.71701,-0.51024 1.40956,-0.46657z" fill="#261900" stroke="#1c1200" stroke-width="1"/><path d="M316.21917,172.68803c0.12858,-0.40355 1.27718,-0.83731 2.56544,-0.96883c0.70047,-0.07151 2.50193,-0.16185 2.88072,-0.05238c0.31786,0.09186 -0.72226,0.3608 -0.78092,0.54493c-0.06532,0.20498 -1.2593,0.31879 -1.92866,0.57961c-0.6484,0.25265 -0.76325,0.6546 -1.39714,0.71931c-1.28826,0.13152 -1.46801,-0.4191 -1.33943,-0.82265z" fill="#261900" stroke="#1c1200" stroke-width="1"/></g><g><path d="M336.93632,178.94455c2.84281,2.40646 1.95626,5.91374 -1.98014,7.83373c-3.9364,1.91999 -9.43204,1.52562 -12.27484,-0.88084c-2.84281,-2.40646 -1.95626,-5.91374 1.98014,-7.83373c3.9364,-1.91999 9.43204,-1.52562 12.27484,0.88084z" fill="#af865b" stroke="#72583b" stroke-width="2.5"/><path d="M322.54653,180.39901c0.30779,0.45557 -0.07903,1.00239 -0.86398,1.22135c-0.4268,0.11905 -1.61699,0.3213 -1.9943,0.22111c-0.31662,-0.08407 0.15616,-0.44166 0.01572,-0.64953c-0.15634,-0.23141 0.57916,-0.42537 0.79664,-0.75296c0.21067,-0.31734 -0.1053,-0.77035 0.28093,-0.87809c0.78495,-0.21896 1.4572,0.38255 1.76499,0.83812z" fill="#261900" stroke="#1c1200" stroke-width="1"/><path d="M326.19091,183.28035c0.73642,0.15082 1.12274,0.69779 0.86287,1.22167c-0.14129,0.28485 -0.68739,0.99383 -1.05307,1.11048c-0.30686,0.09789 -0.41485,-0.36616 -0.75086,-0.43497c-0.37406,-0.07661 -0.11743,-0.56012 -0.35826,-0.8809c-0.23328,-0.31073 -0.97209,-0.45592 -0.84422,-0.7137c0.25987,-0.52389 1.40711,-0.4534 2.14353,-0.30258z" fill="#261900" stroke="#1c1200" stroke-width="1"/><path d="M334.52593,184.43955c0.19473,0.48063 -0.31874,0.98256 -1.14686,1.12109c-0.45027,0.07532 -1.67477,0.15717 -2.02351,0.02078c-0.29265,-0.11445 0.26032,-0.42089 0.17147,-0.64019c-0.09892,-0.24414 0.67435,-0.36286 0.96787,-0.66498c0.28433,-0.29266 0.08091,-0.77157 0.48838,-0.83973c0.82812,-0.13853 1.34791,0.52241 1.54265,1.00304z" fill="#261900" stroke="#1c1200" stroke-width="1"/><path d="M335.96411,181.49166c0.49308,0.31472 0.72286,0.88441 0.51322,1.27244c-0.11399,0.21098 -0.53033,0.68742 -0.78701,0.69679c-0.21539,0.00786 -0.26041,-0.42047 -0.48538,-0.56407c-0.25046,-0.15987 -0.04552,-0.51377 -0.19,-0.85145c-0.13996,-0.3271 -0.63502,-0.63755 -0.53186,-0.82847c0.20964,-0.38802 0.98796,-0.03995 1.48104,0.27478z" fill="#261900" stroke="#1c1200" stroke-width="1"/><path d="M329.38512,181.00679c0.6651,-0.13305 1.62075,0.07805 2.1345,0.47149c0.27933,0.21393 0.85063,0.8054 0.76878,0.98646c-0.06869,0.15194 -0.73936,-0.09388 -1.04283,-0.03317c-0.33784,0.06758 -0.80128,-0.30064 -1.37083,-0.42011c-0.55172,-0.11573 -1.21103,0.02142 -1.46382,-0.17217c-0.51375,-0.39344 0.3091,-0.69946 0.97421,-0.8325z" fill="#261900" stroke="#1c1200" stroke-width="1"/><path d="M325.61696,179.73076c-0.15777,-0.441 0.59948,-1.17354 1.69132,-1.63618c0.59367,-0.25155 2.18442,-0.80387 2.60667,-0.79009c0.35433,0.01157 -0.41601,0.54968 -0.34402,0.75089c0.08013,0.224 -0.93733,0.64461 -1.37314,1.07965c-0.42215,0.42141 -0.25289,0.85727 -0.79013,1.08491c-1.09185,0.46264 -1.63293,-0.04818 -1.7907,-0.48918z" fill="#261900" stroke="#1c1200" stroke-width="1"/></g><g><path d="M319.96416,182.41377c1.11631,2.87382 -1.87049,5.80198 -6.67119,6.54025c-4.80071,0.73826 -9.5974,-0.99295 -10.71371,-3.86676c-1.11631,-2.87382 1.87049,-5.80198 6.67119,-6.54025c4.80071,-0.73826 9.5974,0.99295 10.71372,3.86676z" fill="#af865b" stroke="#72583b" stroke-width="2.5"/><path d="M305.86316,180.11468c0,0.48632 -0.6937,0.88056 -1.54943,0.88056c-0.46528,0 -1.68237,-0.11655 -1.96639,-0.30109c-0.23833,-0.15485 0.41695,-0.35758 0.41695,-0.57947c0,-0.24703 0.79487,-0.23695 1.19738,-0.47671c0.3899,-0.23225 0.38083,-0.71832 0.80188,-0.71832c0.85573,0 1.0996,0.70873 1.0996,1.19505z" fill="#261900" stroke="#1c1200" stroke-width="1"/><path d="M307.42045,183.61589c0.58204,0.31998 0.59743,0.90808 0.03439,1.31353c-0.30614,0.22046 -1.24645,0.72044 -1.65418,0.7336c-0.34215,0.01104 -0.15361,-0.43283 -0.41918,-0.57884c-0.29564,-0.16254 0.23941,-0.53253 0.2173,-0.88101c-0.02142,-0.33756 -0.60913,-0.65308 -0.33209,-0.85259c0.56304,-0.40545 1.57172,-0.05469 2.15376,0.2653z" fill="#261900" stroke="#1c1200" stroke-width="1"/><path d="M314.34769,186.74551c-0.11923,0.4805 -0.9013,0.80269 -1.74678,0.71962c-0.45971,-0.04516 -1.63365,-0.27846 -1.86903,-0.48835c-0.19751,-0.17613 0.49963,-0.31282 0.55404,-0.53206c0.06057,-0.24407 0.84345,-0.15696 1.29993,-0.35478c0.44218,-0.19163 0.55238,-0.67276 0.9684,-0.63189c0.84548,0.08306 0.91267,0.80697 0.79344,1.28747z" fill="#261900" stroke="#1c1200" stroke-width="1"/><path d="M317.49383,184.45802c0.25726,0.40624 0.11497,0.97552 -0.3178,1.27151c-0.23531,0.16094 -0.91249,0.48458 -1.15374,0.42868c-0.20245,-0.04691 0.02171,-0.44292 -0.09566,-0.62827c-0.13067,-0.20635 0.27664,-0.47289 0.35338,-0.81239c0.07433,-0.32888 -0.18738,-0.73176 0.02556,-0.87741c0.43277,-0.296 0.931,0.21166 1.18826,0.6179z" fill="#261900" stroke="#1c1200" stroke-width="1"/><path d="M311.75948,182.37408c0.69254,0.04715 1.43833,0.4762 1.66575,0.95832c0.12366,0.26214 0.28114,0.93656 0.09384,1.07868c-0.15717,0.11926 -0.62003,-0.26958 -0.93601,-0.29109c-0.35178,-0.02395 -0.54869,-0.4708 -0.9971,-0.72083c-0.43436,-0.24219 -1.12414,-0.28419 -1.23604,-0.52142c-0.22743,-0.48212 0.71702,-0.55081 1.40956,-0.50367z" fill="#261900" stroke="#1c1200" stroke-width="1"/><path d="M309.09379,180.28377c0.12858,-0.43564 1.27717,-0.90389 2.56544,-1.04587c0.70046,-0.0772 2.50193,-0.17472 2.88072,-0.05655c0.31786,0.09917 -0.72226,0.38949 -0.78092,0.58827c-0.06532,0.22128 -1.2593,0.34414 -1.92866,0.6257c-0.6484,0.27274 -0.76325,0.70665 -1.39714,0.77652c-1.28826,0.14198 -1.46801,-0.45242 -1.33943,-0.88807z" fill="#261900" stroke="#1c1200" stroke-width="1"/></g><g><path d="M327.56775,181.91346c2.84281,2.40646 1.95626,5.91374 -1.98014,7.83373c-3.9364,1.91999 -9.43204,1.52562 -12.27484,-0.88084c-2.84281,-2.40646 -1.95626,-5.91374 1.98014,-7.83373c3.9364,-1.91999 9.43204,-1.52562 12.27484,0.88084z" fill="#af865b" stroke="#72583b" stroke-width="2.5"/><path d="M313.17796,183.36792c0.30779,0.45557 -0.07903,1.00239 -0.86398,1.22135c-0.4268,0.11905 -1.61699,0.3213 -1.9943,0.22111c-0.31662,-0.08407 0.15616,-0.44166 0.01572,-0.64953c-0.15634,-0.23141 0.57916,-0.42537 0.79664,-0.75296c0.21067,-0.31734 -0.1053,-0.77035 0.28093,-0.87809c0.78495,-0.21896 1.4572,0.38255 1.76499,0.83812z" fill="#261900" stroke="#1c1200" stroke-width="1"/><path d="M316.82234,186.24926c0.73642,0.15082 1.12274,0.69779 0.86287,1.22167c-0.14129,0.28485 -0.68739,0.99383 -1.05307,1.11048c-0.30686,0.09789 -0.41485,-0.36616 -0.75086,-0.43497c-0.37406,-0.07661 -0.11743,-0.56012 -0.35826,-0.8809c-0.23328,-0.31073 -0.97209,-0.45592 -0.84422,-0.7137c0.25987,-0.52389 1.40711,-0.4534 2.14353,-0.30258z" fill="#261900" stroke="#1c1200" stroke-width="1"/><path d="M325.15736,187.40846c0.19473,0.48063 -0.31874,0.98256 -1.14686,1.12109c-0.45027,0.07532 -1.67477,0.15717 -2.02351,0.02078c-0.29265,-0.11445 0.26032,-0.42089 0.17147,-0.64019c-0.09892,-0.24414 0.67435,-0.36286 0.96787,-0.66498c0.28433,-0.29266 0.08091,-0.77157 0.48838,-0.83973c0.82812,-0.13853 1.34791,0.52241 1.54265,1.00304z" fill="#261900" stroke="#1c1200" stroke-width="1"/><path d="M326.59554,184.46057c0.49308,0.31472 0.72286,0.88441 0.51322,1.27244c-0.11399,0.21098 -0.53033,0.68742 -0.78701,0.69679c-0.21539,0.00786 -0.26041,-0.42047 -0.48538,-0.56407c-0.25046,-0.15987 -0.04552,-0.51377 -0.19,-0.85145c-0.13996,-0.3271 -0.63502,-0.63755 -0.53186,-0.82847c0.20964,-0.38802 0.98796,-0.03995 1.48104,0.27478z" fill="#261900" stroke="#1c1200" stroke-width="1"/><path d="M320.01655,183.97571c0.6651,-0.13305 1.62075,0.07805 2.1345,0.47149c0.27933,0.21393 0.85063,0.8054 0.76878,0.98646c-0.06869,0.15194 -0.73936,-0.09388 -1.04283,-0.03317c-0.33784,0.06758 -0.80128,-0.30064 -1.37083,-0.42011c-0.55172,-0.11573 -1.21103,0.02142 -1.46382,-0.17217c-0.51375,-0.39344 0.3091,-0.69946 0.97421,-0.8325z" fill="#261900" stroke="#1c1200" stroke-width="1"/><path d="M316.24839,182.69967c-0.15777,-0.441 0.59948,-1.17354 1.69132,-1.63618c0.59367,-0.25155 2.18442,-0.80387 2.60667,-0.79009c0.35433,0.01157 -0.41601,0.54968 -0.34402,0.75089c0.08013,0.224 -0.93733,0.64461 -1.37314,1.07965c-0.42215,0.42141 -0.25289,0.85727 -0.79013,1.08491c-1.09185,0.46264 -1.63293,-0.04818 -1.7907,-0.48918z" fill="#261900" stroke="#1c1200" stroke-width="1"/></g></g></g></svg>