<svg version="1.1" xmlns="http://www.w3.org/2000/svg" xmlns:xlink="http://www.w3.org/1999/xlink" width="166.23205" height="205.98753" viewBox="0,0,166.23205,205.98753"><g transform="translate(-170.27788,-58.06438)"><g fill="#ffffff" stroke="none" stroke-miterlimit="10"><path d="M272.42559,96.49382c34.39506,-6.6508 -101.25774,48.7495 -92.28587,95.14821c1.02178,5.28422 20.80116,28.77229 37.48678,28.47184c11.16431,-0.20103 18.71496,-25.80717 26.59395,-19.96099c16.60664,12.32207 9.4855,55.3298 21.35696,53.04003c8.61764,-1.66217 19.98538,-19.26463 26.04373,-34.9104c4.69664,-12.12912 32.19131,22.16101 37.506,24.7685c14.60814,7.16702 -14.32856,-9.52342 -33.37357,-5.84584c-14.86398,2.87022 -18.23044,26.94178 -26.0068,26.84646c-13.09009,-0.16045 -34.19346,-62.81925 -38.74889,-14.73949c-0.63621,6.71484 -7.38805,0.7572 -11.18061,0.03339c-15.16925,-2.89505 -45.22801,-46.64635 -48.80906,-65.16604c-8.97188,-46.39871 67.0223,-81.03488 101.41736,-87.68567z" stroke-width="0"/><text transform="translate(176.18302,80.31136) rotate(1.78633) scale(0.5,0.5)" font-size="40" xml:space="preserve" fill="#ffffff" stroke-width="1" font-family="&quot;Comic Sans MS&quot;, Sans Serif" font-weight="normal" text-anchor="start"><tspan x="0" dy="0">Запомни рецепт</tspan></text><path d="M335.39456,243.07735c0,12.4344 -25.43203,7.10984 -33.41623,7.10984c-7.9842,0 13.98268,1.76965 13.98268,-10.66475c0,-2.64631 9.24528,-6.18932 9.69928,-7.8888c1.67924,-6.28603 -9.34842,-16.75863 -3.06343,-16.75863c7.9842,0 12.79771,15.76795 12.79771,28.20235z" stroke-width="0"/></g></g></svg>