<svg version="1.1" xmlns="http://www.w3.org/2000/svg" xmlns:xlink="http://www.w3.org/1999/xlink" width="271.21721" height="101.04903" viewBox="0,0,271.21721,101.04903"><g transform="translate(-190.30125,-173.2105)"><g stroke-miterlimit="10"><text transform="translate(289.74111,252.09965) scale(1.77279,1.77279)" font-size="40" xml:space="preserve" fill="#313131" stroke="none" stroke-width="1" stroke-linecap="butt" font-family="&quot;Comic Sans MS&quot;, Sans Serif" font-weight="normal" text-anchor="start"><tspan x="0" dy="0"> - </tspan></text><text transform="translate(342.54971,237.74276) scale(0.5,0.5)" font-size="40" xml:space="preserve" fill="#313131" stroke="none" stroke-width="1" stroke-linecap="butt" font-family="&quot;Comic Sans MS&quot;, Sans Serif" font-weight="normal" text-anchor="start"><tspan x="0" dy="0">малиновый </tspan><tspan x="0" dy="48px">сироп</tspan></text><path d="M297.91681,213.75026l-0.67471,26.66666c0,0 -3.50194,7.89217 -5.94785,10.8268c-2.26278,2.71492 -7.54626,6.83987 -7.54626,6.83987c0,0 -8.68975,3.77617 -14.32182,4.58563c-6.58727,0.94673 -22.44963,1.41438 -22.44963,1.41438c0,0 -19.9316,-0.55331 -28.3689,-1.33866c-2.84093,-0.26443 -7.39918,-0.63732 -10.5303,-1.3598c-4.20142,-0.96946 -6.64344,-2.30153 -6.64344,-2.30153c0,0 -4.30191,-2.87055 -6.31722,-5.57668c-2.32567,-3.12287 -3.80337,-11.42332 -3.80337,-11.42332l-0.67471,-21.33334l-0.33735,-7.33333z" fill="#751a34" stroke="#313131" stroke-width="0" stroke-linecap="round"/></g></g></svg>