<svg version="1.1" xmlns="http://www.w3.org/2000/svg" xmlns:xlink="http://www.w3.org/1999/xlink" width="197.75937" height="412.53617" viewBox="0,0,197.75937,412.53617"><g transform="translate(-151.44466,87.66763)"><g stroke-miterlimit="10"><path d="M318.5,322.5c0,0 2.6501,-13.24187 2.86806,-33.49444c0.29681,-27.57895 6.7261,-71.15829 -4.24155,-108.00312c-3.79331,-12.74329 -13.23362,-34.27929 -3.84697,-41.6753c18.5018,-14.5781 5.9609,-43.79192 6.02544,-44.11824c0.05455,-0.27577 -2.09276,-20.40066 -5.42329,-37.49769c-2.47196,-12.68959 -6.38169,-23.71121 -6.38169,-23.71121c0,0 9.49546,-9.35833 12.38631,-11.12496c3.09518,-1.8915 16.61369,7.62496 16.61369,7.62496c0,0 -1.16667,41.68097 4.5,63.25c-5.20733,15.17776 5.16998,61.12488 -1.97685,101.24189c-5.67097,31.83264 -1.09305,67.94981 -0.39012,91.0452c0.51984,17.07985 7.86697,29.46291 7.86697,29.46291z" fill="#87563d" stroke="#5c311b" stroke-width="3.5"/><g stroke="#202020" stroke-width="3.5"><path d="M169.04231,-85.68616c0,0 24.27738,5.18969 38.29316,13.66057c23.37708,14.12869 93.55197,56.54112 93.55197,56.54112l-24.81758,41.06274c0,0 -69.42654,-41.96014 -92.83365,-56.10698c-14.23764,-8.60497 -29.68207,-27.42243 -29.68207,-27.42243z" fill="#313131"/><path d="M240.45726,-53.58097l32.02903,19.15062l-25.64815,42.89602l-32.02902,-19.15062z" fill="#99491c"/><path d="M305.64728,-22.36711l28.0254,16.75679c0,0 -21.36078,33.74109 -26.85238,45.31497c-3.32978,7.01772 -10.74376,12.95332 -16.85879,9.29706c-6.44994,-3.85651 -19.87966,-11.88635 -19.87966,-11.88635z" fill="#99491c"/></g><text transform="translate(249.76599,-39.66436) rotate(112.87924) scale(0.31674,0.31674)" font-size="40" xml:space="preserve" fill="#313131" stroke="#313131" stroke-width="3" font-family="Handwriting" font-weight="normal" text-anchor="start"><tspan x="0" dy="0">Coffee</tspan></text></g></g></svg>