<svg version="1.1" xmlns="http://www.w3.org/2000/svg" xmlns:xlink="http://www.w3.org/1999/xlink" width="48.44026" height="49.44954" viewBox="0,0,48.44026,49.44954"><g transform="translate(-214.84248,-161.72515)"><g stroke-miterlimit="10"><path d="M221.21261,194.71818c0,-7.13486 0,-25.82968 0,-29.54545c0,-1.27865 0.98159,-2.44757 2.11466,-2.44757c3.80829,0 25.25337,0 32.81818,0c1.6519,0 2.64193,1.31701 2.64193,2.7203c0,3.98397 0,23.28049 0,29.72727c0,1.3207 -1.16329,2.10212 -2.46012,2.10212c-4.04207,0 -25.22394,0 -32.54545,0c-1.553,0 -2.56921,-0.79977 -2.56921,-2.55666z" fill="#b09374" stroke="#876036" stroke-width="2"/><path d="M231.81818,180c0,-4.51869 3.66312,-8.18182 8.18182,-8.18182c4.51869,0 8.18182,3.66312 8.18182,8.18182c0,4.51869 -3.66312,8.18182 -8.18182,8.18182c-4.51869,0 -8.18182,-3.66312 -8.18182,-8.18182z" fill="#b09374" stroke="#876036" stroke-width="6"/><path d="M235.87273,172.08182v-6.36364h8.27273v6.36364z" fill="#876036" stroke="none" stroke-width="0"/><path d="M254.91818,184.12727l-6.36364,0l0,-7.81818l6.36363,0z" fill="#876036" stroke="none" stroke-width="0"/><path d="M235.87273,193.9v-6.36364h8.27273v6.36364z" fill="#876036" stroke="none" stroke-width="0"/><path d="M231.91818,184.21818l-6.36364,0v-7.81818l6.36364,-0.00001z" fill="#876036" stroke="none" stroke-width="0"/><path d="M231.41125,176.93851l-4.34016,-4.6539l5.71766,-5.3322l4.34016,4.6539z" fill="#876036" stroke="none" stroke-width="0"/><path d="M252.76619,172.45254l-4.3273,4.66586l-5.73235,-5.3164l4.3273,-4.66587z" fill="#876036" stroke="none" stroke-width="0"/><path d="M236.948,188.27072l-4.3273,4.66586l-5.73235,-5.31639l4.3273,-4.66587z" fill="#876036" stroke="none" stroke-width="0"/><path d="M248.22943,193.12032l-4.34016,-4.6539l5.71766,-5.3322l4.34016,4.65391z" fill="#876036" stroke="none" stroke-width="0"/><text transform="translate(214.96364,208.14586) scale(0.24231,0.24231)" font-size="40" xml:space="preserve" fill="#000000" stroke="none" stroke-width="1" font-family="&quot;Comic Sans MS&quot;, Sans Serif" font-weight="normal" text-anchor="start"><tspan x="0" dy="0">настройки</tspan></text></g></g></svg>