<svg version="1.1" xmlns="http://www.w3.org/2000/svg" xmlns:xlink="http://www.w3.org/1999/xlink" width="197.75937" height="412.53618" viewBox="0,0,197.75937,412.53618"><g transform="translate(-151.44465,87.66764)"><g stroke-miterlimit="10"><path d="M318.5,322.5c0,0 2.6501,-13.24187 2.86806,-33.49444c0.57766,-53.67421 -0.86806,-156.59 -0.86806,-192.75556c0,-24.64243 -13,-62.25 -13,-62.25c0,0 9.49546,-9.35833 12.38631,-11.12496c3.09518,-1.8915 16.61369,7.62496 16.61369,7.62496c0,0 4.5,39.68097 4.5,63.25c0,36.92585 -3.91635,141.38065 -2.36697,192.28709c0.51984,17.07985 7.86697,29.46291 7.86697,29.46291z" fill="#87563d" stroke="#5c311b" stroke-width="3.5"/><g stroke="#202020" stroke-width="3.5"><path d="M169.04231,-85.68617c0,0 24.27738,5.18969 38.29316,13.66057c23.37708,14.12868 93.55197,56.54112 93.55197,56.54112l-24.81758,41.06274c0,0 -69.42654,-41.96014 -92.83365,-56.10698c-14.23764,-8.60497 -29.68207,-27.42243 -29.68207,-27.42243z" fill="#313131"/><path d="M240.45726,-53.58098l32.02902,19.15062l-25.64815,42.89601l-32.02902,-19.15062z" fill="#99491c"/><path d="M305.64727,-22.36711l28.0254,16.75679c0,0 -21.36078,33.74108 -26.85238,45.31497c-3.32978,7.01772 -10.74375,12.95332 -16.85878,9.29706c-6.44993,-3.85651 -19.87967,-11.88634 -19.87967,-11.88634z" fill="#99491c"/></g><text transform="translate(249.76599,-39.66436) rotate(112.87924) scale(0.31674,0.31674)" font-size="40" xml:space="preserve" fill="#313131" stroke="#313131" stroke-width="3" font-family="Handwriting" font-weight="normal" text-anchor="start"><tspan x="0" dy="0">Coffee</tspan></text></g></g></svg>