<svg version="1.1" xmlns="http://www.w3.org/2000/svg" xmlns:xlink="http://www.w3.org/1999/xlink" width="62.90957" height="65.70319" viewBox="0,0,62.90957,65.70319"><g transform="translate(-288.54543,-145.87605)"><g stroke-miterlimit="10"><path d="M291.22844,207.20988l4.11022,-56.20988h53.4329l-4.11022,58z" fill="#b29576" stroke="#815c34" stroke-width="5"/><path d="M330.28268,154.93855c0,3.62437 -3.24594,6.5625 -7.25,6.5625c-4.00406,0 -7.25,-2.93813 -7.25,-6.5625c0,-3.62437 3.24594,-6.5625 7.25,-6.5625c4.00406,0 7.25,2.93813 7.25,6.5625z" fill="#b37676" stroke="#823434" stroke-width="5"/><path d="M339.22565,183.35538c0,3.98102 5.39026,11.87252 -4.05601,15.33491c-5.10455,1.87099 -24.9342,0.84979 -28.68977,0.84979c-10.70548,0 -7.90415,-8.73506 -7.90415,-14.86734c0,-6.13227 9.05491,-7.33957 19.76039,-7.33957c10.70548,0 20.88955,-0.11006 20.88955,6.02221z" fill="#785c3e" stroke="#695137" stroke-width="2.5"/><path d="M338.66107,181.28525c0,6.13227 -8.67851,11.10345 -19.384,11.10345c-10.70548,0 -19.384,-4.97119 -19.384,-11.10345c0,-6.13227 8.67851,-11.10345 19.384,-11.10345c10.70548,0 19.384,4.97119 19.384,11.10345z" fill="#af865b" stroke="#8d6c49" stroke-width="2.5"/><path d="M312.862,177.15018c2.74915,-4.49077 12.07754,-3.17741 13.84424,1.32405c2.48438,6.33006 -8.24493,9.09738 -12.45919,4.9216c-0.54268,-0.30244 -0.99861,-0.70792 -1.32923,-1.1837c-1.2604,-0.6117 -0.63167,-4.1213 -0.05583,-5.06194z" fill="#723e78" stroke="#532d57" stroke-width="2"/></g></g></svg>