<svg version="1.1" xmlns="http://www.w3.org/2000/svg" xmlns:xlink="http://www.w3.org/1999/xlink" width="419.41742" height="723.27204" viewBox="0,0,419.41742,723.27204"><defs><radialGradient cx="345.10476" cy="476.88083" r="80.88379" gradientUnits="userSpaceOnUse" id="color-1"><stop offset="0" stop-color="#202020"/><stop offset="1" stop-color="#202020" stop-opacity="0"/></radialGradient></defs><g transform="translate(1.62312,2.91101)"><g stroke-miterlimit="10"><path d="M-1.62312,720.36103v-303.93667h363.24625v303.93667z" fill="#603d2b" stroke="#a87744" stroke-width="0"/><path d="M1.7938,415.9114v-417.07241h356.4124v417.07241z" fill="#d1a06c" stroke="#a87744" stroke-width="3.5"/><path d="M251.69703,495.3042l-11.48028,-157h149.24363l11.48028,156z" fill="#6a4330" stroke="#5c311b" stroke-width="5"/><path d="M340.40828,493.80391c44.67088,0 76.70914,-6.73198 76.70914,1c0,7.73198 8.66455,21 -36.00633,21c-31.06942,0 -120.25585,-13.41835 -150.71349,-19.92834c-13.33363,-2.84992 12.42831,1.28259 12.42831,-1.07166c0,-7.73198 52.91149,-1 97.58237,-1z" fill="url(#color-1)" stroke="none" stroke-width="0"/><path d="M227.17098,495.8042l11.48028,-157h149.24363l-11.48028,162z" fill="#87563d" stroke="#5c311b" stroke-width="5"/><path d="M241.78224,479.76099l9.28343,-126.95679h120.68466l-9.28343,131z" fill="#d1af8a" stroke="#a87744" stroke-width="5"/><text transform="translate(257.14492,389.72127) rotate(2.80747) scale(0.5,0.5)" font-size="40" xml:space="preserve" fill="#313131" stroke="none" stroke-width="1" font-family="&quot;Comic Sans MS&quot;, Sans Serif" font-weight="normal" text-anchor="start"><tspan x="0" dy="0">рецепт:</tspan><tspan x="0" dy="46.150000000000006px">•</tspan><tspan x="0" dy="46.150000000000006px">•</tspan><tspan x="0" dy="46.150000000000006px">•</tspan></text></g></g></svg>