<svg version="1.1" xmlns="http://www.w3.org/2000/svg" xmlns:xlink="http://www.w3.org/1999/xlink" width="136.58891" height="99.63975" viewBox="0,0,136.58891,99.63975"><defs><radialGradient cx="171.24128" cy="383.928" r="62.00776" gradientUnits="userSpaceOnUse" id="color-1"><stop offset="0" stop-color="#202020"/><stop offset="1" stop-color="#202020" stop-opacity="0"/></radialGradient></defs><g transform="translate(-112.83055,-309.82991)"><g stroke-miterlimit="10"><path d="M170.04113,383.06636c34.24594,0 52.40656,5.01504 52.40656,11.2014c0,6.18636 -42.16362,15.2019 -76.40956,15.2019c-34.24594,0 -33.20416,-8.21544 -33.20416,-14.4018c0,-6.18636 22.96122,-12.0015 57.20716,-12.0015z" fill="url(#color-1)" stroke="none" stroke-width="0" stroke-linecap="butt"/><path d="M246.61688,375.23504c0,5.35453 -12.07864,9.04449 -31.93585,11.74778c-2.0831,0.28358 -5.34479,5.47476 -7.56723,5.61648c-4.66554,0.29749 -34.42844,-0.39905 -40.59338,-0.95147c-5.22848,-0.46849 -7.8222,-5.54281 -11.66964,-6.75933c-11.38707,-3.6005 -18.74919,-5.56686 -18.74919,-9.65345c0,-7.09542 24.7397,-12.84741 55.25766,-12.84741c30.51796,0 55.25766,5.75199 55.25766,12.84741z" fill="#cacaca" stroke="#999999" stroke-width="4.5" stroke-linecap="butt"/><path d="M247.16945,374.68247c0,6.48507 -25.04893,11.74225 -55.94838,11.74225c-30.89944,0 -55.94838,-5.25719 -55.94838,-11.74225c0,-6.48507 25.04893,-11.74225 55.94838,-11.74225c30.89944,0 55.94838,5.25719 55.94838,11.74225z" fill="#ffffff" stroke="#bababa" stroke-width="4.5" stroke-linecap="butt"/><path d="M243.02511,374.68247c0,3.58587 -17.13224,6.49278 -38.26592,6.49278c-21.13368,0 -38.26592,-2.90691 -38.26592,-6.49278c0,-3.58587 17.13224,-6.49278 38.26592,-6.49278c21.13368,0 38.26592,2.90691 38.26592,6.49278z" fill-opacity="0.30588" fill="#000000" stroke="none" stroke-width="4.5" stroke-linecap="butt"/><g stroke-width="4.5"><path d="M223.29842,338.54042c0,0 7.29839,11.27276 5.91665,19.54449c-1.38171,8.27172 -12.14292,17.7292 -12.14292,17.7292l-64.80815,1.1117l-1.064,-20.76529l72.09841,-17.6201z" fill="#f4ffd4" stroke="#b1b99a" stroke-linecap="round"/><path d="M202.44654,312.07991c2.74322,3.28632 12.52231,14.7042 17.38006,20.52371c1.6972,2.03321 0.82703,4.05863 -1.35969,4.58c-8.58551,2.04698 -63.44116,15.12586 -63.44116,15.12586c0,0 35.78249,-35.15888 41.58645,-40.86171c1.53674,-1.50996 4.42499,-1.05621 5.83435,0.63214z" fill="#fffcb1" stroke="#aba976" stroke-linecap="round"/><path d="M207.53623,328.34054c-0.87281,4.0264 -5.0862,6.53049 -9.41087,5.59303c-4.32466,-0.93748 -7.12293,-4.9615 -6.25013,-8.9879c0.87281,-4.0264 5.0862,-6.53051 9.41087,-5.59303c4.32466,0.93748 7.12293,4.9615 6.25013,8.9879z" fill="#723e78" stroke="#512c55" stroke-linecap="butt"/></g></g></g></svg>