<svg version="1.1" xmlns="http://www.w3.org/2000/svg" xmlns:xlink="http://www.w3.org/1999/xlink" width="132.59092" height="161.78009" viewBox="0,0,132.59092,161.78009"><g transform="translate(-347.4,-26.35182)"><g stroke-miterlimit="10"><g stroke-width="3.5"><path d="M475.49092,60.56214c-2.37542,-0.73474 -6.7364,-1.93892 -7.84118,-0.84952c-13.49804,13.31007 -79.43819,78.33188 -89.90492,88.65284c-0.46458,0.45811 1.17761,2.71729 0.90368,3.66186c-3.31433,-2.89593 -10.94773,-5.43102 -14.73495,-7.89805c-1.13211,-0.73747 -4.84811,-3.75515 -6.09635,-4.55529c-2.93699,-3.49279 -3.47271,-7.72039 -5.93804,-11.58662c1.21645,-0.23608 3.93917,0.92053 4.43826,0.42839c9.77958,-9.64338 77.73073,-76.6482 90.97298,-89.70604c0.91204,-0.89934 0.05508,-5.78114 -0.12611,-7.35789c-0.10506,-0.91428 0.44125,0.17136 1.33656,1.05917c1.33392,1.32277 0.16437,2.34946 1.15218,3.08706c0.35725,0.26676 2.617,-0.49172 3.09505,0.10435c0.44015,0.54883 0.4376,3.27386 1.13314,3.96221c0.44456,0.43997 3.38736,0.93006 3.88212,1.44128c0.31107,0.32143 0.70525,2.85746 1.03754,3.18745c0.46534,0.46211 2.97108,0.50847 3.44428,0.99479c0.37594,0.38637 0.47833,2.45049 0.86072,2.8366c0.35374,0.35718 2.56059,0.63878 2.90612,0.99494c0.38271,0.39448 0.22152,2.19323 0.5958,2.57387c0.73068,0.7431 2.3185,1.11402 2.98012,1.79757c0.55405,0.57242 1.0759,2.17178 1.57469,2.66943c1.557,1.55343 4.11735,3.39683 4.63569,3.85872c0.66944,0.59654 0.65684,0.94111 -0.30737,0.64287z" fill="#d4d4d4" stroke="#adadad"/><path d="M456.79103,67.49799l-75.95175,74.89399l-18.02136,-18.27589l75.95175,-74.89399z" fill="#ffdc92" stroke="#a58e5e"/></g><g stroke-width="3.5"><path d="M478.24092,57.31214c-2.37542,-0.73474 -6.7364,-1.93892 -7.84118,-0.84952c-13.49804,13.31007 -79.43819,78.33188 -89.90492,88.65284c-0.46458,0.45811 -0.82239,1.21729 -1.09632,2.16186c-3.31433,-2.89593 -6.69773,-5.68102 -10.48495,-8.14805c-1.13211,-0.73747 -2.34811,-1.50515 -3.59635,-2.30529c-2.93699,-3.49279 -6.47271,-6.72039 -8.93804,-10.58662c1.21645,-0.23608 2.18917,-0.57947 2.68826,-1.07161c9.77958,-9.64338 77.73073,-76.6482 90.97298,-89.70604c0.91204,-0.89934 0.05508,-5.78114 -0.12611,-7.35789c-0.10506,-0.91428 0.44125,0.17136 1.33656,1.05917c1.33392,1.32277 0.16437,2.34946 1.15218,3.08706c0.35725,0.26676 2.617,-0.49172 3.09505,0.10435c0.44015,0.54883 0.4376,3.27386 1.13314,3.96221c0.44456,0.43997 3.38736,0.93006 3.88212,1.44128c0.31107,0.32143 0.70525,2.85746 1.03754,3.18745c0.46534,0.46211 2.97108,0.50847 3.44428,0.99479c0.37594,0.38637 0.47833,2.45049 0.86072,2.8366c0.35374,0.35718 2.56059,0.63878 2.90612,0.99494c0.38271,0.39448 0.22152,2.19323 0.5958,2.57387c0.73068,0.7431 2.3185,1.11402 2.98012,1.79757c0.55405,0.57242 1.0759,2.17178 1.57469,2.66943c1.557,1.55343 4.11735,3.39683 4.63569,3.85872c0.66944,0.59654 0.65684,0.94111 -0.30737,0.64287z" fill="#ffffff" stroke="#adadad"/><path d="M459.54103,64.24799l-75.95175,74.89399l-18.02136,-18.27589l75.95175,-74.89399z" fill="#ffdc92" stroke="#a58e5e"/></g><path d="M359.15,149.63191c0,-1.65685 1.34315,-3 3,-3c1.65685,0 3,1.34315 3,3c0,1.65685 -1.34315,3 -3,3c-1.65685,0 -3,-1.34315 -3,-3z" fill="#ffffff" stroke="none" stroke-width="0.5"/><path d="M347.4,167.88191c0,-1.65685 1.34315,-3 3,-3c1.65685,0 3,1.34315 3,3c0,1.65685 -1.34315,3 -3,3c-1.65685,0 -3,-1.34315 -3,-3z" fill="#ffffff" stroke="none" stroke-width="0.5"/><path d="M352.65,185.13191c0,-1.65685 1.34315,-3 3,-3c1.65685,0 3,1.34315 3,3c0,1.65685 -1.34315,3 -3,3c-1.65685,0 -3,-1.34315 -3,-3z" fill="#ffffff" stroke="none" stroke-width="0.5"/><text transform="translate(395.81875,115.50872) rotate(-45.07819) scale(0.5,0.5)" font-size="40" xml:space="preserve" fill="#000000" stroke="none" stroke-width="1" font-family="&quot;Comic Sans MS&quot;, Sans Serif" font-weight="normal" text-anchor="start"><tspan x="0" dy="0">Сахар</tspan></text></g></g></svg>