<svg version="1.1" xmlns="http://www.w3.org/2000/svg" xmlns:xlink="http://www.w3.org/1999/xlink" width="82.6911" height="44.25417" viewBox="0,0,82.6911,44.25417"><g transform="translate(-188.64955,-152.1438)"><g data-paper-data="{&quot;isPaintingLayer&quot;:true}" fill-rule="nonzero" stroke-width="2.5" stroke-linejoin="miter" stroke-miterlimit="10" stroke-dasharray="" stroke-dashoffset="0" style="mix-blend-mode: normal"><path d="M210.15996,166.7322c0,0 7.32905,-4.46195 13.60097,-4.85069c6.475,-0.40133 20.95617,-1.29891 30.92599,-1.91686c6.00255,-0.37205 8.86976,-4.64274 8.86976,-4.64274l6.3559,31.19254c0,0 -6.99372,2.99754 -12.45176,3.33584c-8.27374,0.51282 -19.91233,1.23421 -26.105,1.61804c-7.86754,0.48765 -16.95301,3.3051 -16.95301,3.3051z" fill="#52ce79" stroke="#065600" stroke-linecap="butt"/><path d="M228.47098,175.57143c0,-6.50907 5.27664,-11.78571 11.78571,-11.78571c6.50907,0 11.78571,5.27664 11.78571,11.78571c0,6.50907 -5.27664,11.78571 -11.78571,11.78571c-6.50907,0 -11.78571,-5.27664 -11.78571,-11.78571z" fill="none" stroke="#065600" stroke-linecap="butt"/><path d="M232.47098,175.07143c0,0 2.26916,-3.17682 3.05985,-4.28378c0.50047,-0.70066 1.36274,-0.53909 1.47743,0.44722c0.24807,2.13344 1.17701,10.12227 1.17701,10.12227" fill="none" stroke="#065600" stroke-linecap="round"/><path d="M248.29709,173.94945c0.45289,3.48162 -0.82901,6.51854 -2.86322,6.78315c-2.03421,0.26461 -4.0504,-2.34329 -4.50329,-5.82491c-0.45289,-3.48162 0.82901,-6.51854 2.86322,-6.78315c2.03421,-0.26461 4.0504,2.34329 4.50329,5.82491z" fill="none" stroke="#065600" stroke-linecap="butt"/><path d="M189.89955,179.5l15.42857,-0.57143" fill="none" stroke="#313131" stroke-linecap="round"/><path d="M196.7567,172.78571l0.57143,11.28571" fill="none" stroke="#313131" stroke-linecap="round"/></g></g></svg>