<svg version="1.1" xmlns="http://www.w3.org/2000/svg" xmlns:xlink="http://www.w3.org/1999/xlink" width="49.06549" height="45.79635" viewBox="0,0,49.06549,45.79635"><g transform="translate(-295.09512,-157.09032)"><g stroke-miterlimit="10"><path d="M296.91106,200.95586c0,0 5.19994,-13.3709 5.68432,-20.43562c0.4785,-6.97887 3.87123,-22.14276 3.87123,-22.14276l36.44444,1.33333c0,0 0.42612,16.08968 -0.04064,23.46469c-0.41635,6.57837 -4.84825,18.44702 -4.84825,18.44702z" fill="#ffec73" stroke="#baaf63" stroke-width="2.5" stroke-linecap="butt"/><path d="M314.6489,168.62721c-0.16381,-0.22091 0.99402,-0.94035 1.07489,-1.21667c0.27327,-0.93368 0.68626,-2.34471 0.83653,-2.85814c0.05332,-0.18216 0.0319,-0.59573 -0.00382,-0.97023c-0.03719,-0.38988 0.23175,-0.3502 0.6273,-0.00192c0.257,0.22629 0.54521,0.43615 0.79667,0.51268c2.39957,0.7303 17.27736,5.25833 20.98385,6.38639c0.28643,0.08717 1.46826,-0.49432 1.54847,-0.23965c0.06921,0.21975 -0.93726,1.26076 -1.01749,1.53489c-0.26218,0.89579 -0.62007,2.11857 -0.76274,2.60603c-0.0834,0.28494 0.18998,1.86334 -0.3831,1.87701c-0.23957,0.00571 -1.17721,-1.36234 -1.47011,-1.45148c-4.68688,-1.42644 -18.27144,-5.56087 -20.40465,-6.21011c-0.25407,-0.07733 -1.68683,0.21862 -1.8258,0.0312z" fill="#8f4c00" stroke="#000000" stroke-width="1.5" stroke-linecap="round"/><path d="M318.98408,168.43644l0.93633,-3.62427l15.91764,5.32981l-0.93633,3.62427z" fill="#ffdc92" stroke="#000000" stroke-width="1.5" stroke-linecap="butt"/><path d="M323.46663,167.84476l6.88889,2.33333" fill="none" stroke="#000000" stroke-width="1.5" stroke-linecap="round"/><text transform="translate(309.00928,197.57095) scale(0.23446,0.23446)" font-size="40" xml:space="preserve" fill="#000000" stroke="none" stroke-width="1" stroke-linecap="butt" font-family="&quot;Comic Sans MS&quot;, Sans Serif" font-weight="normal" text-anchor="start"><tspan x="0" dy="0">орехи</tspan></text><path d="M313.02104,187.39999c0,1.44975 -1.26566,2.625 -2.82692,2.625c-1.56127,0 -2.82692,-1.17525 -2.82692,-2.625c0,-1.44975 1.26566,-2.625 2.82692,-2.625c1.56127,0 2.82692,1.17525 2.82692,2.625z" fill="none" stroke="#000000" stroke-width="1.5" stroke-linecap="butt"/><path d="M321.11719,187.46249c0,1.69137 -1.37113,3.0625 -3.0625,3.0625c-1.69137,0 -3.0625,-1.37113 -3.0625,-3.0625c0,-1.69137 1.37113,-3.0625 3.0625,-3.0625c1.69137,0 3.0625,1.37113 3.0625,3.0625z" fill="none" stroke="#000000" stroke-width="1.5" stroke-linecap="butt"/><path d="M309.99219,186.14999v3" fill="none" stroke="#000000" stroke-width="1.5" stroke-linecap="round"/><path d="M317.86719,186.02499l0.125,3.25" fill="none" stroke="#000000" stroke-width="1.5" stroke-linecap="round"/></g></g></svg>