<svg version="1.1" xmlns="http://www.w3.org/2000/svg" xmlns:xlink="http://www.w3.org/1999/xlink" width="146.07114" height="77.67213" viewBox="0,0,146.07114,77.67213"><g transform="translate(-246.96443,-143.3222)"><g stroke-miterlimit="10"><path d="M390.82904,197.2924c0,6.8463 -15.44373,11.56426 -40.83316,15.02069c-2.66346,0.3626 -6.83383,7.00002 -9.67546,7.18123c-5.96535,0.38036 -44.02019,-0.51022 -51.90267,-1.21655c-6.68513,-0.59903 -10.00148,-7.08703 -14.92079,-8.64248c-14.5595,-4.60361 -23.97269,-7.11778 -23.97269,-12.3429c0,-9.0722 31.63216,-16.42667 70.65239,-16.42667c39.02024,0 70.65239,7.3545 70.65239,16.42667z" fill="#cacaca" stroke="#999999" stroke-width="3"/><path d="M391.53557,196.58587c0,8.29179 -32.02755,15.01363 -71.53557,15.01363c-39.50799,0 -71.53557,-6.72184 -71.53557,-15.01363c0,-8.29179 32.02755,-15.01363 71.53557,-15.01363c39.50799,0 71.53557,6.72184 71.53557,15.01363z" fill="#ffffff" stroke="#bababa" stroke-width="3"/><text transform="translate(262.30744,165.5722) scale(0.5,0.5)" font-size="40" xml:space="preserve" fill="#000000" stroke="none" stroke-width="1" font-family="&quot;Comic Sans MS&quot;, Sans Serif" font-weight="normal" text-anchor="start"><tspan x="0" dy="0">без десерта</tspan></text></g></g></svg>